<svg id="Layer_1" data-name="Layer 1" xmlns="http://www.w3.org/2000/svg" viewBox="0 0 424.76 423.12"><defs><style>.cls-1{fill:#4c88a7;}.cls-2{fill:#4e88a7;}.cls-3{fill:#578da8;}.cls-4{fill:#558cab;}</style></defs><path class="cls-1" d="M280.49,426.56a.7.7,0,0,1-.72.27c-7.19,2.56-14.4,5.07-21.55,7.73a27,27,0,0,0-4.3,2.61l-.16.05-6.18,2.19h0l-3.15,1L241,441.5c-1.81-.28-3.61-.69-5.43-.81-2.72-.17-5.46-.13-8.19-.18-5.34-4.16-4.8-10.06-3.75-15.51,2.28-11.76,4.8-23.5,8-35,4.89-17.58,10.44-35,15.68-52.47,2-6.77,4-13.56,5.94-20.35l3.46-5.8c.25,3,.38,4.67.52,6.35q-5.85,23.07-11.69,46.13c-2.57,10.2-5.2,20.4-7.61,30.64-2.16,9.17-4.1,18.38-6,27.6a18.48,18.48,0,0,0-.1,5.8c.83,6.87,4.31,8.71,11,6.14a67.87,67.87,0,0,1,7.12-1.93l1.79-.77,3.68-1.41,3.82-1a.56.56,0,0,1,.65-.2l9.86-3.72,1.82-.48,4.62-1.89,1.5-.33c.9-.5,1.8-1,2.69-1.51l3.48-1.4,3-1,.19-.08,5.11-1.91.36-.15,7.09-3.19.13-.07,3-1.21,0,0,1.14-.66a.29.29,0,0,1,.43-.21l2.73-1.24h0l4.15-1.67,1.12-.46,5.39-1.93a.64.64,0,0,1,.73-.29c7.44-1,13.57-4.84,19.46-9.16l.37-.15,10.22-4.16.27-.1,1.74-.82,1-.43,4.35,0,.06.07c0,.65-.05,1.3-.08,1.95l-.11.07-3,1.28.08,0-1.15.7L350,395l-1.63,1,.06,0-1.17.63-.15.22h-.27c-3.43.49-7.58-.65-9.12,4.06l-1.61.5-1.54,1h0l-2.18,1-.2.2-.27-.09-4.76,2.18.08-.08-1.24.77-.2.1-2.92,1.24,0,0-4.29,2.11h0l-5.32,2.12h0l-1.06.53a.6.6,0,0,1-.66.33l-2.56,1.16-.07,0-4.1,1.85-1.65.5-6.77,3.53L293,421.32l-8.29,3.35.05,0Z" transform="translate(-86.39 -94.85)"/><path class="cls-2" d="M257.26,317.69c-.14-1.68-.27-3.35-.52-6.35l-3.46,5.8L257,304.31l1.81.42-1.65-1.28c2.75-9.23,5.56-18.44,8.26-27.69,5.77-19.82,11.24-39.73,17.37-59.44,1.95-6.26,5.62-12,8.45-18,2.91-6.15,8.56-7.89,16.36-9.68-2.26,3.42-3.75,5.7-5.26,8-2.9,4.37-6.41,8.45-8.62,13.14-11.94,25.29-19.79,52-27.18,78.89C263.85,298.45,260.38,308,257.26,317.69Z" transform="translate(-86.39 -94.85)"/><path class="cls-3" d="M360.19,386.36l22.72-10.61c.63,4.82-5.47,8.84-17.7,12.32Z" transform="translate(-86.39 -94.85)"/><path class="cls-4" d="M253.92,437.17a27,27,0,0,1,4.3-2.61c7.15-2.66,14.36-5.17,21.55-7.73Z" transform="translate(-86.39 -94.85)"/><path class="cls-4" d="M337.79,396.15c-5.89,4.32-12,8.14-19.46,9.16Z" transform="translate(-86.39 -94.85)"/><path class="cls-4" d="M227.41,440.51c2.73.05,5.47,0,8.19.18,1.82.12,3.62.53,5.43.81C236.34,443.16,231.74,443.68,227.41,440.51Z" transform="translate(-86.39 -94.85)"/><path class="cls-1" d="M360.19,386.36l5,1.71-1,.37-4.24,2-.13.06-4.08.09-.06-.07c0-.69,0-1.39,0-2.08h0l4.25-2Z" transform="translate(-86.39 -94.85)"/><path class="cls-4" d="M337.73,400.84c1.54-4.71,5.69-3.57,9.12-4.06Z" transform="translate(-86.39 -94.85)"/><path class="cls-4" d="M269.75,424.93l-9.86,3.72Z" transform="translate(-86.39 -94.85)"/><path class="cls-4" d="M348.38,391.84,338.16,396Z" transform="translate(-86.39 -94.85)"/><path class="cls-4" d="M296.5,419.78l6.77-3.53Z" transform="translate(-86.39 -94.85)"/><path class="cls-4" d="M284.74,424.67l8.29-3.35Z" transform="translate(-86.39 -94.85)"/><path class="cls-4" d="M299.58,413l-7.09,3.19Z" transform="translate(-86.39 -94.85)"/><path class="cls-4" d="M247.58,439.41l6.18-2.19Z" transform="translate(-86.39 -94.85)"/><path class="cls-4" d="M317.6,405.6l-5.39,1.93Z" transform="translate(-86.39 -94.85)"/><path class="cls-4" d="M355.78,388.45c0,.69,0,1.39,0,2.08l-4.35,0Z" transform="translate(-86.39 -94.85)"/><path class="cls-4" d="M355.8,390.6l4.08-.09-4.16,2C355.75,391.9,355.78,391.25,355.8,390.6Z" transform="translate(-86.39 -94.85)"/><path class="cls-4" d="M292.13,416.35,287,418.26Z" transform="translate(-86.39 -94.85)"/><path class="cls-4" d="M313.37,411.84l5.32-2.12Z" transform="translate(-86.39 -94.85)"/><path class="cls-4" d="M304.92,415.75l4.1-1.85Z" transform="translate(-86.39 -94.85)"/><path class="cls-4" d="M311.09,408l-4.15,1.67Z" transform="translate(-86.39 -94.85)"/><path class="cls-4" d="M318.67,409.73l4.29-2.11Z" transform="translate(-86.39 -94.85)"/><path class="cls-4" d="M276.19,422.56l-4.62,1.89Z" transform="translate(-86.39 -94.85)"/><path class="cls-4" d="M280.49,426.56l4.3-1.93Z" transform="translate(-86.39 -94.85)"/><path class="cls-4" d="M360,386.43l-4.25,2Z" transform="translate(-86.39 -94.85)"/><path class="cls-4" d="M327.2,405.62l4.76-2.18Z" transform="translate(-86.39 -94.85)"/><path class="cls-4" d="M360,390.45l4.24-2Z" transform="translate(-86.39 -94.85)"/><path class="cls-1" d="M257.16,303.45l1.65,1.28-1.81-.42A.92.92,0,0,1,257.16,303.45Z" transform="translate(-86.39 -94.85)"/><path class="cls-4" d="M259.24,428.85l-3.82,1Z" transform="translate(-86.39 -94.85)"/><path class="cls-4" d="M309.09,413.86l2.56-1.16Z" transform="translate(-86.39 -94.85)"/><path class="cls-4" d="M322.92,407.65l2.92-1.24Z" transform="translate(-86.39 -94.85)"/><path class="cls-4" d="M244.41,440.44l3.15-1Z" transform="translate(-86.39 -94.85)"/><path class="cls-4" d="M307,409.65l-2.73,1.24Z" transform="translate(-86.39 -94.85)"/><path class="cls-4" d="M286.83,418.34l-3,1Z" transform="translate(-86.39 -94.85)"/><path class="cls-4" d="M280.38,420.72c-.89.51-1.79,1-2.69,1.51C278.59,421.73,279.49,421.23,280.38,420.72Z" transform="translate(-86.39 -94.85)"/><path class="cls-4" d="M302.7,411.73l-3,1.21Z" transform="translate(-86.39 -94.85)"/><path class="cls-4" d="M352.65,393.9l3-1.28Z" transform="translate(-86.39 -94.85)"/><path class="cls-4" d="M350.39,390.92l-1.74.82Z" transform="translate(-86.39 -94.85)"/><path class="cls-4" d="M251.74,431.3l-1.79.77Z" transform="translate(-86.39 -94.85)"/><path class="cls-4" d="M332.43,403.33l2.18-1Z" transform="translate(-86.39 -94.85)"/><path class="cls-4" d="M303.81,411.1l-1.14.66Z" transform="translate(-86.39 -94.85)"/><path class="cls-4" d="M312.31,412.37l1.06-.53Z" transform="translate(-86.39 -94.85)"/><path class="cls-4" d="M334.58,402.3l1.54-1Z" transform="translate(-86.39 -94.85)"/><path class="cls-4" d="M326,406.31l1.24-.77Z" transform="translate(-86.39 -94.85)"/><path class="cls-4" d="M348.38,396l1.63-1Z" transform="translate(-86.39 -94.85)"/><path class="cls-4" d="M347.27,396.56l1.17-.63Z" transform="translate(-86.39 -94.85)"/><path class="cls-4" d="M351.58,394.55l1.15-.7Z" transform="translate(-86.39 -94.85)"/><path class="cls-2" d="M506.39,259.39c.17,1.22-.61-2-.57-1.38.37,1.45.69,2.74.88,3.86s.39,2.07.53,2.81c.26,1.49.34,2.19.21,2,.35,1.81.59,2.93.79,3.76s.27,1.37.39,2c-.11-.75-.19-1.59-.35-2.41l-.43-2.36a12.88,12.88,0,0,1-.35-2.49c.4,2,.62,3.18.82,4.33.11-.42,1.12,5.78.22,0C507.7,265.76,507.09,263.27,506.39,259.39Zm4.54,34.88c.08,1.45.15,2.91.23,4.38-.13-.32-.11,2.53-.53,0C510.58,295.28,510.7,295.18,510.93,294.27Zm-64.65-140.4c1.8,2,8.45,8.48,10,10.64-1.18-1.25-2.15-2.39-3.11-3.36l-2.66-2.74L448,155.8c-.86-.89-1.8-1.82-2.93-2.79C445,152.82,446.46,154.15,446.28,153.87ZM508.46,339.5l.42-3.9c.14-1.46.42-3.06.6-4.82C509.61,331.52,508.87,336.3,508.46,339.5ZM479.55,196.34l-1.05-1.78-1.36-2.08-3.08-4.73c-1-1.65-2.19-3.2-3.22-4.64l-2.7-3.73C471.93,184,479.73,195.93,479.55,196.34Zm23.77,54.77c.88,3.49,1.72,6.82,2.08,8.5l-.13-.44c-.08-.28-.18-.69-.31-1.16l-.86-3.38C503.51,252.26,503,250.13,503.32,251.11Zm-17.2-43.38c.59,1.37-.81-1.17-2.26-3.91s-3.2-5.54-2.75-5c.5.79,1.31,2.15,2.24,3.73S485.2,206,486.12,207.73Zm1.51,195.43c-1.07,2.32-4.66,8.54-4.3,7.62C484.89,408,485.8,406.61,487.63,403.16ZM506.14,264c.53,2.7.05,1,.72,4.32l-1-5c-.32-1.52-.6-2.92-1-4.3-.73-2.76-1.37-5.54-2.35-9.17.66,2.11,1.23,4.48,1.89,6.87.31,1.21.64,2.42,1,3.63S505.88,262.76,506.14,264ZM345.93,99.64c.44.22-.9-.14-2.95-.56l-7.07-1.4c1.88.31,3.12.53,4.52.79S343.41,99,345.93,99.64Zm-65.21-4.79c-1.14.21-9,.88-7.26.89-2.29.2-3.5.4-4.79.56s-2.69.34-5.32.75c1.9-.36,4.75-.84,7.87-1.32S277.75,95.07,280.72,94.85Zm152,47.93-.14.17-2.15-1.74-2.67-2c-2-1.44-4.15-3.19-6.76-5.06,1.47.92,2.94,2,4.83,3.4S430,140.48,432.68,142.78Zm35.18,36.81c1.4,1.9,1.45,2.06,2.53,3.56.52.93-1.77-2.28-1.86-2.26C466.6,178.12,467.32,179,467.86,179.59ZM480.77,199c1,1.7,1.82,3.2,2.54,4.46s1.21,2.35,1.74,3.16c2,3.85-1-1.62-.27.14-.78-1.51-.5-1.13-.56-1.35-.81-1.61-1.72-3.1-2.48-4.42s-1.41-2.43-1.83-3.19A5.65,5.65,0,0,0,480.77,199Zm-24-33-.13.12c-1.93-2.28-1.9-2.14-3.87-4.38A55.26,55.26,0,0,1,456.77,166.07Zm-12.16-12.56c1.44,1.29,2.76,2.72,4.12,4.1.12.2-.43-.32-1.25-1.14l-1.39-1.4c-.51-.5-1.06-1-1.57-1.46Zm55.2,88c1.34,4.37,1,3.71,2,7C501.24,247,499.13,239.75,499.81,241.49ZM109.7,208.09l-.86,1.56-.78,1.59-1.56,3.18-1.59,3.26-.82,1.69c-.26.58-.5,1.18-.76,1.78l.61-1.58.77-1.68,1.71-3.55C107.6,212,108.72,209.65,109.7,208.09Zm388.91,30.74c.21.6.47,1.38.78,2.3l1,3.23c.25,1.75.58,2.88-.51.16-.84-2.79-1.06-3.65-1.3-4.42s-.42-1.47-1.28-3.89C497.73,237,499.62,242.2,498.61,238.83Zm-212-143.75c4.87-.26,5.31-.21,5.81-.09C290.21,95,285.9,95.26,286.57,95.08Zm29,.55c1.81.11,4,.34,6.46.6s5.15.79,8,1.16c-.41,0-6.38-.92-5.77-.71-.92-.2-2.11-.35-3.56-.51Zm-219,277.46c1,3.22,3.67,10.2,3.36,9.59-.43-.87-1.23-3.24-2-5.39S96.58,373.18,96.62,373.09Zm385.78-170c.52.87,3.72,7.22,4.11,7.72,1.46,2.77.16.64.47,1.37-1.88-3.65-2.74-5.41-4.77-9ZM494.23,228c1.15,3,.44,1.41-.62-1.16-.53-1.28-1.15-2.8-1.68-4.09s-1-2.33-1.19-2.72C491.78,221.63,493.63,226.9,494.23,228ZM378.86,501.91c-1.69.72-3.7,1.54-5.48,2.25s-3.36,1.17-4.11,1.42-.7.22.72-.29l3.24-1.14ZM100.43,382.5c-.45-.76-1.9-5.25-2.07-5.41-1-3-.94-3-.77-2.82,1.22,3.65,1.47,4.28,1.06,2.71.67,1.82,1.24,3.67,2,5.44-.43-.68.85,2.68,2.39,6.56.73,1.95,1.72,3.95,2.5,5.68l1.78,3.82c-.22-.39-.84-1.65-1.63-3.3l-1.28-2.72c-.46-1-.92-2-1.31-3C101.46,385.48,100,381.85,100.43,382.5ZM265,515.26c1.64.18,3.74.5,6.18.89s5.24.6,8.23.88a50.91,50.91,0,0,1-5.35-.47c-1.85-.14-3.83-.51-5.5-.75Zm145.89-387c.45.23,1.05.59,1.73,1l2.09,1.44,3.41,2.42c-.54-.31-1.85-1.21-3.27-2.2l-2.12-1.5C412,129,411.36,128.61,410.87,128.3Zm-29.48-15.55c3.24,1.32,2.86,1.29,6.58,3-.89-.35-2-.86-3.27-1.49s-2.87-1.25-4.69-2A5.84,5.84,0,0,0,381.39,112.75Zm-290.82,150-.91,4.95-.58,3.09-.49,3.39a33.89,33.89,0,0,1,.57-4.26C89.6,267.67,90.15,264.9,90.57,262.76Zm2.83-11.27c-.48,2.58-1.1,4.31-2.37,9.87A95.38,95.38,0,0,1,93.4,251.49Zm4.72-15.22c.19-.71.72-2.16,1.31-3.73l.88-2.37c.3-.76.62-1.46.86-2,.11-.09-.12.7.72-1.28C100.45,230.58,100.42,229.7,98.12,236.27Zm-9.94,42.25a10.55,10.55,0,0,0,.38-1.94l.66-4.4c.2-1.61.57-3.2.81-4.42a13.17,13.17,0,0,1,.5-2.06c-1.28,5.88-1.66,9.7-2.21,13L88,281.05l-.24,2.35-.54,5.22c.06-1.05.17-2.47.32-4.17S87.81,280.74,88.18,278.52Zm16.27-56.88c-1.85,4.91-1.65,3.19-4,9.31-.77,2.07-.29.56.6-1.69l2.68-6.38C102.86,225.26,102.8,225.3,104.45,221.64ZM255.1,512.87a25.11,25.11,0,0,1-4.19-1.16,18.58,18.58,0,0,1,2.81.7c2,.41,4,.81,4.26.81C263.1,514.33,253,512.31,255.1,512.87ZM112.47,407.25c-1.19-2.31-1.4-2.73-2.66-5.16C109.59,401.26,113.58,408.93,112.47,407.25Zm44.83,56.32c-1.31-1.32-4.6-4.27-7.37-6.94.79.64,2.86,2.6,5.32,4.92,1.1,1,1.14.95,3.24,2.85C158.9,464.88,157.66,463.85,157.3,463.57Zm-33-277.15c.89-1.18,2.06-3,3.18-4.45a25.17,25.17,0,0,0,1.85-2.64c3-3.86-1.37,2.06-.67,1.31-.63.82-1.84,2.26-2.72,3.58A16.2,16.2,0,0,1,124.26,186.42ZM157.6,463.25c-2-1.9-1.84-1.88-5.24-5-.07-.18,1.36,1.13,1.17.84l3.7,3.45c.4.37.79.75,1.36,1.25l2.46,2c-.52-.3,2,1.77.95,1.09l-2.84-2.45C158,463.57,157.19,462.74,157.6,463.25Zm82.26,45.08c-2.1-.67-1.07-.42.66.07l1.39.4,1.44.35c.93.23,1.73.44,2.09.56a15.35,15.35,0,0,1-2.44-.54C241.57,508.86,240.06,508.33,239.86,508.33Zm19.65,4.61c-1.79-.42-1.36-.41-.16-.25s3.16.51,4.48.63C270.06,514.35,260.83,513.18,259.51,512.94Zm-33.3-9.26c-4.44-1.68,2.86.92,1.44.28.4.19,2,.77,3.55,1.32s3.08,1,3.23,1.08c1,.37-1.13-.21-3.41-1l-3.24-1.18A11.41,11.41,0,0,0,226.21,503.68Zm22.3,5.71,3.93,1c1.13.24,1.86.42,1.63.43-2-.34-3.48-.76-4.42-1S248.3,509.43,248.51,509.39ZM271,513.63c-1.26-.22-3.18-.52-5.66-.88l0-.17C267.18,513,271.62,513.5,271,513.63Zm-55.1-15.23c-2.66-1.15-5.34-2.39-2.54-1.31S216.19,498.39,215.94,498.4Zm-49.57-29.95,6.83,5.19a6.63,6.63,0,0,1-.91-.6l-2-1.51C168.75,470.37,167,469.09,166.37,468.45Zm94.82,43.3c-2.67-.55-3.52-.79-7-1.48,3.83.66-1.1-.45,5.66.86C258.83,511.09,262.21,511.79,261.19,511.75Zm-71.31-27c-3.77-2.28-1.41-1-6-3.83,1,.64,3.13,1.82,6.14,3.68C191.36,485.52,191.34,485.56,189.88,484.74Zm53.19,22.79c-2.42-.69-4.73-1.51-4.06-1.43C242.84,507.29,242.94,507.38,243.07,507.53Zm-77.52-40.35c-4.51-3.76,1.14.8-3.19-2.85l5.12,4.28,3.41,2.64a12.27,12.27,0,0,1,1.44,1.18c-1.71-1.26-3.43-2.6-4.71-3.6A10.76,10.76,0,0,0,165.55,467.18ZM99.69,370.57l.12,0,1.42,4c-.75-1.92-.5-1,.83,2.74C101.28,375.62,101.07,374.5,99.69,370.57Zm7.72,19.93c.36.65,1,2.15,1.9,4s1.84,4.16,3,6.26c-.26-.42-.66-1.13-1.14-2s-.93-1.94-1.43-3C108.8,393.66,107.83,391.5,107.41,390.5ZM204,491.72c1.15.38,6.58,3.28,7.72,3.66C215.35,497.32,206.49,493,204,491.72ZM96.76,359.52c-.38-1.79-1.62-6.53-2-8.31A79.23,79.23,0,0,1,96.76,359.52ZM276.88,512.91l-3.46-.35c-1-.09-1.79-.24-2.46-.33a15.48,15.48,0,0,1-2.55-.5c6.43,1,5.8.81,4.26.5A24.83,24.83,0,0,1,276.88,512.91Zm-98.37-36.85a77.9,77.9,0,0,1-6.31-4.71,44.39,44.39,0,0,0-4-3c-1.47-1.23-.82-.82-1-1,2.38,2,4.75,3.74,6.68,5.25l2.62,2C177.34,475.18,178,475.66,178.51,476.06Zm77.32,33.29c6.6,1.21,1.39-.09,2.92-.09,1.42.38,6.95,1.63,2.72.94a32.53,32.53,0,0,0,4.5.84c1.81.27,3.76.56,5.3.85l-8.38-1.16C260.08,510.21,257.49,509.7,255.83,509.35Zm-1.38-.32a14.14,14.14,0,0,1-3.12-.79c-.21-.12-.06-.15-1-.42l2.44.63c.59.13,1,.23,1.21.31C254.5,508.9,254.45,509,254.45,509ZM98.09,362.1c-.66-2.48.29.36,1.41,4C99.5,366.55,99.17,365.69,98.09,362.1ZM114,401.53q-2.16-4.08-1.84-3.81c1.36,2.57,4.51,8.75,4,7.49.79,1.62,1.12,2.16,1.07,2.12a12.8,12.8,0,0,1-.91-1.56l-1.5-2.78-.58-1.05A2.14,2.14,0,0,0,114,401.53Zm69.68,77c-1.54-1.14-3.75-2.63-5.48-3.81s-2.91-2.15-2.55-2a57.11,57.11,0,0,0,4.73,3.42A24.25,24.25,0,0,1,183.7,478.54Zm-70.56-79.73c-.74-1.17-1.66-3.37-2.69-5.58s-2.08-4.48-2.64-6c.65,1.52,1.49,3.24,2.35,5.19S111.94,396.56,113.14,398.81Zm34,48.51c-2.37-2.57-.19-.37.13-.12.86.92,1.73,1.86,2,2,1.06,1.1.61.75,1.92,2.09C151.8,452.13,146.53,446.52,147.15,447.32Zm-6.49-7.46c-1.17-1.33-2.29-2.86-3.54-4.4s-2.54-3.14-3.77-4.81l-3.65-5.06-1.78-2.5-1.61-2.49a25.6,25.6,0,0,1,1.53,2.26c.8,1.15,1.53,2.11.94,1.17,1,1.43,2.09,3,3.23,4.59l1.72,2.4c.59.77,1.21,1.52,1.78,2.25C137.85,436.17,139.79,438.74,140.66,439.86ZM92.25,287.62c0,1-.25,2.56-.4,4.2.1.14.3-2.33.18,0,.15-1.63.22-2.5.21-2.8.56-5.14-.24,3.27.05,1.41q-.17,1.29-.21,2.52L92,295.4c-.08,1.59-.16,3.14-.24,4.71s-.08,3.16-.1,4.82,0,3.4,0,5.28c-.09-1.5-.09-3.49-.07-5.71,0-1.1,0-2.27.07-3.44l.21-3.56c.16-4.23-.16,1.34-.18,0l.22-5.42C91.9,290.54,92.06,289.18,92.25,287.62Zm17,102.06c-1-1.71-2.66-6.43-3.22-7.82.09.13.49,1.1.88,2l.54,1.28a2.93,2.93,0,0,0,.27.57C109.85,390.92,106.93,384.36,109.26,389.68ZM250.6,506.8c-1-.39,3.78.85,2.77.45,2.36.48,3.16.71,2.62.66A34.56,34.56,0,0,1,250.6,506.8ZM394.24,125.59c1.56,1-.15.11,1.09,1-3.85-2.14-2.49-1.88-8.67-4.68C385.51,121.17,391.74,124.13,394.24,125.59Zm-302,188.83c0-.15-.08-.69-.12-1.43s-.1-1.69-.08-2.65c0-1.91,0-3.88,0-4.37.09.38.06,5.25.15,5.64C92.36,313.63,92.16,312.08,92.28,314.42Zm-.18-12.68c.17-2.63.26-4.35.35-6.14s.11-3.64.45-6.5l.26,0c-.11.78-.25,1.77-.36,2.88l-.23,3.52C92.41,297.93,92.25,300.3,92.1,301.74ZM272.91,510.23c-4.77-.67-1.74-.44-7-1.16A41.24,41.24,0,0,1,272.91,510.23ZM94.32,276.5c.9-5.76.47-2.27.75-2.74-.33,2.26-.57,3.87-.78,5.34s-.46,2.76-.59,4.4a15.15,15.15,0,0,1,.24-2.64l.64-4.32c-.53,3.22.26-2.75-.54,2.76C94.06,278.8,94.34,276.82,94.32,276.5Zm15,111.63c-1.3-3.13-1.09-2.87-2.62-6.53.12.17-.06-.33-.46-1.35.2.09,1.67,4.35,1.64,3.89C108.22,385.17,109.51,388.32,109.32,388.13ZM94.8,338.21l-.58-3.77c-.23-1.48-.5-3.14-.64-4.86l-.51-5.09c-.17-1.64-.33-3.17-.37-4.46a6,6,0,0,1,.09,1c0,.57.11,1.26.16,1.81a19.14,19.14,0,0,0,0-2.83c.07.1.09,1,.24,2.27l.48,4.73C92.64,318.91,93.82,332.78,94.8,338.21ZM253.47,106.4,248,107.81a5,5,0,0,1-1.39.2C249.45,107.23,251,106.9,253.47,106.4ZM375,117l6.34,2.77a29.36,29.36,0,0,0,4,1.77c3,1.46,2.32,1.25,6.29,3.2-2.46-1.2-4.63-2.17-6.52-3.09s-3.52-1.73-5.05-2.34c-3-1.27-5.37-2.27-7.72-3.16C371.3,115.53,373.79,116.54,375,117ZM108,384.11a18.44,18.44,0,0,1-1.44-4C108.83,385.61,108.49,384.92,108,384.11ZM92.64,306c0,1.5,0,3.41,0,5s.16,3,.18,3.37c.13,3.23-.06.55-.23-2.65S92.56,304.82,92.64,306ZM355,110.13a19.16,19.16,0,0,1,2.61,1.07l-4-1.26-1.67-.5-2.4-.58c-.27-.2.67,0,1.89.29S354.12,109.94,355,110.13ZM94.52,334c-.15-1.13-.18-1.38-.37-2.78h.09c.65,4.23.71,5.06,1.2,8.34C95.47,340.55,94.49,333,94.52,334ZM93.3,321.4c.23,2.34.47,4.66.7,7C93.89,329.07,92.88,319.88,93.3,321.4ZM369.65,115.12c2.92,1.1,3.19,1.41,3.26,1.51s-.12.16,1.76,1.05c-3.62-1.53-4.25-1.78-4.76-2.06a27.53,27.53,0,0,0-4.33-1.64C366.3,114.11,368.84,115,369.65,115.12ZM97.06,347.82c.15.48.55,2.41.67,2.73.68,2.85.67,3,.37,2.05-.13-.48-.37-1.24-.55-2.1S97.19,348.67,97.06,347.82Zm10.61,34.9c-1.83-4.36-.7-2.08-.86-2.69C108.67,384.62,108.08,383.45,107.67,382.72ZM93.43,321.39a10,10,0,0,1,.13,1l.19,1.79c0-1.18,0-1.2.32,1.37.23,3-.21-1-.08,1.42C93.61,323.17,93.63,324.17,93.43,321.39Zm5.91,34.53c-.54-2.31-.76-3.51-.42-2.77.49,1.79,1.3,5,1.48,5.4a23.76,23.76,0,0,0,.61,2.73c-.67-2-1-3.28-1.88-6.74.29,1.33.59,2.71.89,4.11-.66-2.23-1.83-7.35-1.19-4a14.94,14.94,0,0,1-.66-3,17.35,17.35,0,0,0-.46-2.53C98,350.25,98.72,353.51,99.34,355.92ZM149.8,165a36.78,36.78,0,0,1,3-2.93c.68-.6,1-.87,1.13-.86l-2.45,2.23C150.64,164.24,150,165,149.8,165Zm246.43-37.19,3.71,2c-.23-.07.22.22,1.15.8a15.19,15.19,0,0,0-2.49-1.28c-1-.55-2-1.13-3.69-2.05C394.8,127.16,396.47,128.05,396.23,127.83ZM413,138.1c5.56,3.74-.5.09,3.26,2.69-3.14-2-4.9-3.59-8-5.68.41.14,2.93,1.93,4.68,3.1Zm49.21,47.47c-1.43-1.89-2.2-2.83-1.84-2.09-1.75-2.35-2.56-3.42-2.42-3.48.61.71,1.43,1.71,2.24,2.72S461.67,184.82,462.18,185.57ZM93.24,314.38c.26,2.92.2,2,.34,1.39,0,1.42,0,1.45.13,4.19A53.22,53.22,0,0,1,93.24,314.38ZM309.37,102.73c1.12.1,2.28.11,4.2.32.69.35-.05.35-1.11.21A22.93,22.93,0,0,1,309.37,102.73Zm22.26,2.61c4.84,1,5.51,1.29,9.58,2.15.54.21-2.53-.41-1.42-.06l-8.12-1.73C329.8,105.37,329.29,105.2,331.63,105.34ZM191.45,132c3.08-1.71-1,.78,1.34-.49C187,134.93,190.57,132.66,191.45,132ZM94.28,325.54c-.16-1.85-.43-3.71-.48-5.58H94c0,1.56.19,2.8.25,3.73A18.05,18.05,0,0,1,94.28,325.54Zm2.15-54.4c.11-.54-1,6.3-.52,4.18-.22,1-1,6.77-.94,5.52C95.63,277.33,95.81,274.06,96.43,271.14ZM405.75,133.8c4.88,3-.25-.08,1.09.87-1.88-1.16-2.94-1.79-4-2.44L401,131.15c-.68-.42-1.48-.91-2.56-1.48C398,129,405.34,133.84,405.75,133.8Zm-53.68-23.6c5.29,1.61,2.36,1-1.42-.11C347,109.07,352.35,110.37,352.07,110.2Zm27.65,9.93a12.91,12.91,0,0,1,2.46,1.19c.21.16,0,.13,0,.19-1.07-.52-1.75-.8-2.2-1s-.66-.32-.83-.42a14.19,14.19,0,0,0-2-1C377.45,119.22,379.68,120.18,379.72,120.13Zm-76-17.22c2.94,0,8.95.45,8.37.58C306,103.23,308.88,103.14,303.76,102.91ZM157.29,158.64c1.66-1.68,3.35-3,4.5-4s1.88-1.55,1.86-1.42C161.37,155.15,158.42,157.6,157.29,158.64Zm-63,161.29c-.13-2.24-.09-2.42-.18-4.19.07.48.15,1.41.23,2.62s.12,2.72.33,4.34a2.79,2.79,0,0,1-.11-.57c0-.34-.1-.79-.12-1.2C94.37,320.11,94.31,319.42,94.28,319.93ZM317.69,104.12c1.62.22,3.44.36,5.26.69l5.36.91a46.8,46.8,0,0,1,7.23,1.63c-4.28-.93-6.15-1-5.51-.83l-6.89-1c-1.22-.32,4.51.61,5.53.68-1.59-.28-1.54-.38-1.34-.46-1-.19-2.5-.43-4.13-.69a7.23,7.23,0,0,0-2.54-.22,15.85,15.85,0,0,1-3-.21c-4.22-.47,4.08.13-2.76-.54C313.86,103.83,318.7,104.35,317.69,104.12ZM96.21,275.36a38.45,38.45,0,0,1,.74-4.45c.19-.77.32-1.19.58-2.4-.07.46-.21,1.25-.38,2.14L96.88,272l-.21,1.38C96.38,275.18,96.14,276.44,96.21,275.36ZM397.08,129.23l2.44,1.33L401.9,132l-.09.15C400.38,131.11,395.41,128.53,397.08,129.23Zm55.84,45.85c1.06,1.23.69,1,.8,1.15-1.5-1.79-3.08-3.5-4.61-5.25C447.76,169.19,453.13,175.49,452.92,175.08ZM98.29,264.39c.54-2.73.43-1.73,1.33-5.43.09.29-.51,2.37-1.34,6.84C98.51,264,98.75,262.77,98.29,264.39ZM351.94,110.66c.82.33,4,1.3,5.31,1.76.16.21-5.43-1.58-6.72-1.9C349.45,110.11,352.46,110.89,351.94,110.66Zm40.13,16c-1.82-.95-4.21-1.9-7.6-3.51a17.46,17.46,0,0,1,2.52,1C388.37,124.88,390.23,125.67,392.07,126.71ZM96,333.78a25.28,25.28,0,0,1-.51-3.26l-.32-3.67a5.88,5.88,0,0,0,.27,1.38C95.75,331.06,95.61,331,96,333.78ZM373,118.24c-1.15-.69-6.72-2.55-6.48-2.63,1.77.58,3.64,1.24,4.93,1.77S373.4,118.34,373,118.24Zm-167.61,7.15c4.12-2.08-2.51,1.43-1.12.83C199.24,128.77,203.31,126.5,205.34,125.39Zm170.19-6.11,3.59,1.51,1.62.69,1.43.7c1.77.88,3,1.54,3.46,1.82-1.56-.69-2.91-1.35-4.46-2.11s-3.35-1.47-5.71-2.45Zm-280,164.43c.13-1.12.14-1.39.36-2.75H96c-.46,4.35-.35,3.66-.75,6.92,0-.16.08-1.2.17-2.2l.12-1.36A2.72,2.72,0,0,0,95.57,283.71Zm1.76,56.93a4.52,4.52,0,0,1-.12-1.4L96,331C96.4,333.28,97.64,341.26,97.33,340.64Zm92.31-206.2c1.22-.6-5.22,3.45-4.57,3.19,1.47-.86,4.48-2.87,5.92-3.66-.86.53-2.55,1.72-4.37,2.91s-3.75,2.4-4.92,3.2c-.1,0,.2-.31.65-.67l1.48-1.13C187.16,136.16,186.82,136.26,189.64,134.44Zm94.57-30.37,5.6-.28,2.41-.11,1.76,0a12.11,12.11,0,0,1-2.19.19c-1.18.11-2.57.21-3.36.31C285.25,104.27,282.38,104.29,284.21,104.07Zm59.5,5,5.4,1.36-.06.21c-5-1.26-7.91-2-8.13-1.82l-9.52-2.14c2.85.54,6,1.23,8.39,1.71S343.81,109.3,343.71,109.07ZM265,107c3.2-.49,3.2-.6,0-.13.42-.13,3.44-.55,5.49-.86-1.31.28-1.36.37-.54.32s2.52-.3,4.72-.44c-1.6.15-3.26.42-4.95.67l-5.08.71c-1.69.2-3.31.56-4.85.86s-3,.61-4.28.91c-.22,0-1.09.14-2.27.37l-4.11.94a50.77,50.77,0,0,0-5.77,1.5c-6.29,1.86-.24-.11-5.38,1.38.51-.2,2.74-.86,4.73-1.43,1-.3,1.94-.52,2.57-.65s1-.18.73-.09c2.2-.53,2.32-.61,4.05-1a13.57,13.57,0,0,0-2.74.54A102.3,102.3,0,0,1,258.08,108c-4.35.77-3.36.52-.58,0l5.06-1c1.85-.31,3.7-.54,5.1-.73-1,.22-2.51.44-4,.66s-3.05.57-4.19.81c.53,0,2.16-.33,3.52-.56S265.46,106.78,265,107Zm-35.07,8.55c3.34-1.17,5.11-1.74,5.31-1.65C232.13,114.86,229,116,229.89,115.51Zm13.3-4.08c-5.69,1.93-8.58,2.22,0,0ZM161.1,156.61l-1.81,1.62-1.75,1.7-3.48,3.39c.4-.46,2.3-2.38,4-4.08l1.23-1.2,1.06-.91C161,156.64,161.27,156.4,161.1,156.61Zm239.12-24.49c2.51,1.67,4.09,2.4,8.28,5.1l-.09.15L399,131.55C398.84,131.38,400.44,132.35,400.22,132.12Zm-11-6c2.94,1.53,5.67,3.12,6,3.43l-3.66-2-1.82-1-1.88-.9C387.39,125.37,388.8,126,389.22,126.16Zm23.84,14.28c3.33,2.21,5.32,3.89,4.4,3.37-1.53-1.21-2.77-2-3.52-2.58S412.87,140.4,413.06,140.44ZM161.4,156.94c.41-.47-1.59,1.05,1.94-2C165,153.53,165,153.79,161.4,156.94Zm-9.1,8.55a32.63,32.63,0,0,1,3.82-3.4c.43-.34.93-.75,1.74-1.5s1.91-1.87,3.71-3.46c.24,0,.33,0-1.91,2,.89-.76,2.67-2.24,5.23-4.53-1.32,1.21-2.93,2.66-4.56,4.11l-4.54,4.38c1.72-1.86.33-.56-1.21.87s-3.15,3.07-2.09,1.69c-1.76,2-4,4.39-5.77,6.36a30.94,30.94,0,0,0-3.28,4.14c-.09.19,1.15-1.3,2.25-2.61s2.16-2.36,1.45-1.5c-2.78,3.17-3.3,3.8-5.41,6.27-.78.44,5.65-7.36,5.94-7.67,2.33-2.49,4.51-4.94,5.74-6C153.46,164.45,152.13,165.76,152.3,165.49Zm-51.15,92.42c.58-2.21,1-3.73,1.45-5.27s1.05-3.07,1.77-5.34c0,.26-.37,1.37-.8,2.8l-.73,2.32c-.24.82-.45,1.66-.67,2.45C101.32,258.05,100.61,260.46,101.15,257.91Zm340.32-93.12c2.82,2.94-.67-.49-.16.15-1.37-1.38-2-2-2.55-2.64s-1.13-1.1-2.37-2.23a26.94,26.94,0,0,1,2.83,2.58C440.42,163.89,441.54,165,441.47,164.79Zm11.24,12.28c-.47-.25-.27,0-1.13-.86-1.16-1.47-2.38-2.86-3.73-4.36l-2.12-2.36-2.47-2.56c-.07-.18,1.25,1.15,1.09.87,1.32,1.47,1.95,2.16,3,3.27S449.9,173.71,452.71,177.07Zm25.73,39.4a27.16,27.16,0,0,1,2.14,5.12c-.59-1.26-1.17-2.5-1.75-3.76,0-.13,0-.27.7,1.2l-.75-1.74C478.5,216.73,478.3,216.3,478.44,216.47Zm-154,290.17c-.34.07-1,.19-1.87.31l-2.81.25c-1.92.16-3.65.28-3.59.22l4.42-.38,2.07-.18Zm-.06-400.06c2.93.52,6.69,1,8.17,1.47C329.37,107.42,323.52,106.66,324.41,106.58ZM485.64,233c.34.82.66,1.58.9,2.22s.38,1.18.47,1.51c.19.65.07.5-.5-1.08-.31-.88-.69-1.72-1-2.58C486.44,235.16,485.48,232.91,485.64,233Zm-367-20.23a31.8,31.8,0,0,1,2.14-3.58c.71-1-1.63,3.2-1.83,3.74-.12.36.69-1.11.78-1.16,2.24-4.16.74-1.61,3.26-6.09,1.57-2.6,1.46-2.59,1.25-2.48,1.59-2.52,2.65-4.11,2.39-3.4l-3.33,5.48c-.79,1.42-1.27,2.43-1.48,2.92.54-.86,1.21-2.21,2.12-3.57-1,1.77-1.47,2.7-3.94,7.29C115.91,218.72,121.22,208.37,118.6,212.75Zm355.63-3.45c1.59,3,1.5,3.07.88,2-.32-.51-.76-1.29-1.2-2.11s-1-1.61-1.26-2.22A10.83,10.83,0,0,0,474.23,209.3Zm-374,55.49c-.42,2.49-.66,4.17-.5,4.13-.83,3.74-1.06,4.73-1.47,6.75.17-1.05.33-2.05.46-3s.35-1.87.5-2.75C99.5,268.14,99.81,266.47,100.18,264.79Zm2.87-12.11c.71-2.48,1.47-4.39,1.61-5.29C106.55,241.68,102.82,254.07,103.05,252.68Zm382.27-19.57c.76,2,1.24,3.73.23,1.4-1.87-4.57-3.17-8.18-3.78-8.91-1.82-3.83-.57-1.58-2.83-6.29.46.85,1.47,2.93,2.52,5.17l.79,1.69c.25.56.47,1.13.69,1.67.44,1.08.83,2.06,1.13,2.8.63,1.24-1.06-2.91-2.06-5.15C482.21,225.26,485.16,232.94,485.32,233.11ZM339.41,503.63c-4.57.86-.68.06-1.4.06C342.17,502.92,342.37,503,339.41,503.63Zm34.29-10.69c1.92-.83,3.43-1.45,4.47-1.87s1.6-.7,1.66-.7a9.69,9.69,0,0,1-1.36.68C377.46,491.48,375.88,492.1,373.7,492.94ZM486.56,237.09c1.46,4.09.94,3,2.66,7.84l-3.29-9.09C486,235.64,486.58,237.41,486.56,237.09ZM498,290.89c.24.77.39,5.33.52,4.12,0,.82.07,2,.14,3.47s.19,3.1.16,4.8c0-1.25-.29-4.83-.32-6.9,0,1.11,0,2.92.13,4.93s0,4.22,0,6.11c-.11-.59,0-6.78-.26-9.64C498.76,301.37,498.12,294,498,290.89Zm-72.43,171c-1.42,1,3.44-2.83,2-1.87,2.06-1.82,1.4-1.08,4.2-3.59C430.81,457.32,427.51,460.37,425.6,461.84Zm-11,8.29c-6.38,4.69-21.08,13.64-3.4,2.34A40.29,40.29,0,0,0,414.57,470.13Zm35.48-32.51c-.44.43-1.16,1.3-2.08,2.29l-3.09,3.23-2.85,3a9.33,9.33,0,0,1-1.56,1.38c-3.36,3.27-6.87,6.72-7.91,7.66-.58.35.62-.67,2.64-2.63l3.59-3.5,2.14-2.07c.75-.71,1.44-1.51,2.19-2.28l4.48-4.73c1.46-1.58,2.79-3.19,4-4.62s2.41-2.71,3.31-3.81,1.57-2,2-2.47C455.08,432,451.11,436,450.05,437.62ZM416.4,467.94c-3.37,2.44-5.26,3.81-6.23,4.36s-.84.5-.2.06C411.3,471.55,414.62,469,416.4,467.94Zm-26.15,30.84L386,500.62c-1.39.59-2.74,1.24-4.17,1.76L372.64,506c3-1.22,6.43-2.63,9.61-3.82S388.26,499.59,390.25,498.78Zm59.16-42.43c-2.18,2.14-3.36,3.24-4.59,4.4l-2,1.9-3,2.67c2.51-2.18,1.49-1.81-4.68,3.54-1.54,1.38,0,.28.19.23-2.67,2.16-2.62,1.94-4.64,3.52-.91.76-2.5,2.06-3.93,3.2s-2.75,2-2.93,2.25l-4.74,3.42c-.07-.21-7.52,4.61-7.61,4.36,3.44-2.17,6.76-4.07,11-7.17,4.7-3.56-5.16,3.27-.26-.35-2,1.39-3.47,2.51-4.86,3.31s-2.56,1.48-3.74,2.15c-2.12,1.39-2.73,1.86-2.33,1.73-1.31.72-3.11,1.65-5.25,2.86-1.07.6-2.23,1.28-3.46,2l-1.89,1.15-2.05,1.14c1.49-.94-6.52,3.14,1.17-.9l-6.07,3.11c-2.42,1.32-4.87,2.36-5.56,2.8-.85.36-2,.87-3.4,1.5l-2.27,1-2.65,1.07-6.14,2.5c-2.23.85-4.63,1.65-7.1,2.53-1.55.61-2.09.9-3,1.31s-2.17.82-5.18,1.75c-2.47.65,1.68-.72,4.11-1.51l-5.43,1.57c-1.7.48-3.29,1-4.83,1.34L344,512.85l-7.14,1.46c-1.13.23-2.25.48-3.38.66l-3.42.51c.86,0-.94.34-1.39.51-1.28.14-3.26.48-5.75.76l0-.17c-2.05.26-5.8.65-9.88.95l-6.21.26-3,.14c-.95,0-1.86,0-2.71,0a18.3,18.3,0,0,1,2.73-.15c1.59-.09,3.48-.19,4.52-.28-5.17.28-9.94.05-15.73-.07l-9.63-.6-5.71-.59-3.15-.32-1.65-.17-1.71-.25c-1.53-.3,1.2.21,4.59.48s7.4.76,8.38.73c-1-.16-16.26-1.54-11.5-1.22-2-.36-7.42-.94-7.19-.88-5.05-.75-.38-.12-2.82-.59a103.52,103.52,0,0,0,12.93,1.42c-2.58-.24-4.36-.59-6.21-.9s-3.78-.65-6.62-1.08c3.1.42,11,1.47,7.15.79,1.14.14,2.28.33,3.46.46l3.67.35,4,.41,2.22.22,2.4.12c2.07-.06-4-.27-2.89-.38-2.27-.18-3.85-.33-5.5-.5l-2.63-.27-1.54-.16-1.77-.26,7,.52,4.33.32c1.3.08,2.39,0,3,0-.78-.07-1.95-.08-3.25-.22l-4-.35c-2.6-.22-4.7-.35-4.21-.2-1.94-.18-2.41-.36-2.2-.33s1.13.12,2,.15c1.75.1,3.33.19-1.2-.32l5.73.35-3-.35c-1.28-.14-2.72-.29-4-.53-2.53-.43-4.4-.77-3-.66,2.49.37,3.23.55,2.82.59,1.86.28,2.24.22,4.29.41l-2.85-.42c-1.06-.2-2.35-.42-4.24-.71a27.37,27.37,0,0,1,3.84.4c2,.23,3.61.35,1.85.29,3.48.25,7.7.6,7.13.34-2.11-.09-5.21-.38-8.36-.74s-6.31-1.08-8.59-1.52l7.17,1,1.62.23,1.49.15,2.43.25a51.71,51.71,0,0,1,5.68.46c-.87-.21-.38-.27.27-.3s1.46-.13,1.2-.26c-3.71-.21-2.72,0-1.44.21-5.1-.6-3.21-.52-1.39-.53-5.08-.46-5.09-.27-5.68-.15-7.6-.92,7.54.19-2.75-1,6.74.69,7.8.68,8.24.6a2.79,2.79,0,0,1,.82-.12c.28,0,.67,0,1.25,0l2.45.05c-.28-.05-1.45-.11-1.43-.15-.19.18-3.46-.12-6.81-.41-1.67-.16-3.37-.27-4.71-.42a23.62,23.62,0,0,0-2.59-.25c-4.19-.61-2.06-.68-5.57-1-3.12-.53,2.61.15,2.85.07,1.12.19,2.25.38,4.19.66.6,0,6.9.4,2.86-.12,1.9.07,4.88.58,8.4.9a42.35,42.35,0,0,0,4.25.05c-.64-.07-1.3-.14-2.34-.21s-2.48-.21-4.68-.42c2.18.13,1.76-.17-4.16-.71,3.75.29,5.64.31,2.82-.12,1.62.19,3.48.44,5.06.6s2.87.23,3.33.33l-3.45-.13-2.18-.14c.27.07,1.41.18,1.39.23,4.36.14,8.49.2,5.64-.15,3.06.14,4.46.25,4.21.33,3,0,2.38-.13.07-.27s-6.26-.44-9.86-.66c3.51.06,2-.08-.12-.33s-4.9-.68-4-.77c1.51.13,3.4.34,5.37.44s4,.16,5.78.27c1-.08,2.56,0,4.32-.12l5.45-.25h3.51l3.28-.18,5.92-.39c3.68-.37,6.82-.84,9.55-1.22s5-1,7-1.39,3.69-.78,5.17-1.19l6-1.22,1.82-.37,1.87-.46,3.83-1,3.76-.93,3.38-1,4.87-1.44,9.83-3.56,5.5-2.26c1.82-.76,3.64-1.45,5.26-2.28,4.16-2,7.33-3.45,10.25-5.13l4.45-2.41c1.53-.81,3.07-1.81,4.83-2.83,1.94-1.16,4.31-2.46,6.72-4.11l3.78-2.47,2-1.27,1.91-1.39,3.83-2.76,1.88-1.36c.61-.45,1.19-.94,1.77-1.4,2.32-1.86,4.5-3.58,6.32-5.08l7-6.15,6.52-6.25c2.13-2.12,4.16-4.38,6.31-6.67,1.09-1.12,2.08-2.37,3.13-3.62l3.17-3.85c-1.09,1.16-.73.64.48-.87s3.1-4.13,5.3-7c1.13-1.41,2.18-3,3.26-4.57s2.15-3.11,3.15-4.54c1.92-2.93,3.46-5.49,4.33-6.79-1,1.58-2.29,3.82-3.92,6.44s-3.71,5.51-5.88,8.58c.33-.2,3.45-5,4-5.63-.45.72-1.11,1.71-1.9,2.89s-1.69,2.56-2.79,3.95A201.32,201.32,0,0,0,471.56,409c.72-1.22,2.41-4.55,3.22-6.12,1-1.83-.12.35.81-1.14-.55,1-1.11,2-2,3.62.17,0,4.66-8.38,2.84-4.76l1.07-2,.63-1.27c.38-.73.72-1.4,1.44-2.91,1-2.22.85-2.14,2.24-5.07-.17.12-2.57,5.29-3.64,7.47-.14.12.66-1.58.44-1.32,2.18-4.63,2.47-4.34,5.25-11.29-.64,1.65-4.06,10.36-.29,1.38-.53,1.33-1,2.53-1.48,3.69s-1.05,2.21-1.59,3.34l-1.74,3.63c-.62,1.32-1.3,2.78-2.21,4.41.18-.29.7-1.13,1.27-2.27l1.91-3.94c1.32-2.73,2.55-5.22,2.56-4.88-.81,1.67-1.6,3.33-2.41,5,.41-1.11-.32.44-1.32,2.59l-.78,1.69-.89,1.68c-.58,1.08-1.11,2.06-1.48,2.67-.16,0,1-2.08-.15-.08-1,1.78-1.89,3.64-3.16,5.71l-4.55,7.42c.7-1,3.26-5.2,1.59-2.26,3.48-5.86,3-4.66,5.77-9.5-.46.9-1.17,2.25-2,3.71l-2.64,4.3c-1.64,2.66-2.74,4.46-1.64,2.8a232,232,0,0,1-18.53,24.22c.18-.3,1.76-2.14,1.71-2.18a11.32,11.32,0,0,0-1.12,1.3,31.74,31.74,0,0,1-2.5,2.89c-.12.28.93-.71,2.31-2.39s3.29-3.88,5.05-5.9l-3,3.56-2,2.33c-.68.82-1.4,1.67-2.19,2.49l-4.6,4.94c-1.44,1.63-2.95,3-4.08,4.15l3-2.77,1.14-1.11c.61-.59,1.34-1.35,4.71-5,2.24-2.43-1.13,1-2,1.93.43-.54,1.48-1.66,2.38-2.58s1.59-1.7,1.45-1.43c1.92-2.35,3.88-4.66,5.87-7.15l6.12-8.13c-1.28,2-7.13,9.56-9.25,12.15,1.13-1.24,4.3-5,1.93-2,1.05-1.23,2.28-3,4.24-5.5a7.14,7.14,0,0,0-.63.77l-1.08,1.41c1.78-2.43,4.47-5.8,6.82-9.48l3.58-5.31c1.07-1.74,2.08-3.34,2.95-4.68a13.1,13.1,0,0,0,1.3-2.45c.95-1.44,1.82-3.12,2.27-3.85s.39-.58-.72,1.53c2.68-5,4.25-8.07,4.31-8.72,1-1.94,1.89-3.77,2.91-5.91.5-1.08,1.1-2.21,1.64-3.53l1.84-4.43c-.44.84-1.72,3.86-2.3,5.05l4.17-10.27c.07.16.87-2.15.16.06.36-1.06.72-2.12,1.38-3.94a26.37,26.37,0,0,1-1.27,2.94c-.23.41-.39.94-1.51,3.42.53-1.19,2.51-6.52,3.9-10.37.25-1.39-2.93,7.78-2.68,6.39.89-2.54,3.05-8.28,2-5.17,1.09-2.52,2-5.71,3.06-9.07s1.87-7,2.74-10.5a139.35,139.35,0,0,0,2.78-16.68c-.62,3-.35,3.69-1.34,8.18-.18.09-.71,2.56,0-1.41s-.34,2.1-.13,1.39c.3-1.8.63-3.25.8-4.56s.36-2.44.53-3.58.34-2.29.53-3.61c.09-.66.21-1.35.29-2.12s.13-1.61.2-2.53l.13,0c.35-3.89.71-6.76.77-9.82s.37-6.26.29-10.84a20.5,20.5,0,0,1-.12,2.75c0,2.22-.13,3.68-.16,5.23s-.11,3.2-.25,5.8c0-2.48.08-4.06.14-5.79s.22-3.59.09-6.62a60.34,60.34,0,0,0,.28-6.88c.12.18.11,5.75.11,9.65,0-2.35.13-2.27.17-4.13a18.13,18.13,0,0,0-.18-4.16c-.18-7.83,0-12-2.32-27.49.35,2.93-.45-1.74.15,2.76-.22-1.49-.53-3.65-.9-6.18s-1-5.38-1.58-8.29-1.38-5.8-2-8.45l-.49-1.92c-.18-.62-.37-1.21-.54-1.77l-1-3c-.37-1.31,0-.33.5,1.3s1.27,3.93,1.58,5.29c.22,1.17.59,2.72,1.06,4.56.23.91.48,1.9.75,2.94s.44,2.15.67,3.29a22.68,22.68,0,0,0-.76-4.09c.27.22,1.8,8.87,1.83,8.1.1.57.21,1.28.35,2.13s.25,1.85.41,3,.35,2.42.56,3.85.47,3,.62,4.72c0-.3-.08-1.38-.17-2.19s-.16-1.35,0-.57a33.73,33.73,0,0,1,.38,5.52c.19,1.83.44,2.54.27,2.75.39,2.27.32,3.61.64,8.26l-.26-5.81c-.15-1.8-.32-3.73-.57-6.6.18,1.3.32,2.24.51,3.58.08.67.18,1.45.3,2.42s.14,2.16.22,3.64c0-1.36,0-2.74-.13-4.17-.47-4.87-.5-3.38-1-8.25.06,1,.18,2.51.33,4.14-.2-1.39-.38-3.19-.59-4.94s-.5-3.45-.63-4.66c0-.45.64,3.94.75,4.08,0-.26-.17-1.38-.12-1.38-.26-1.58-.65-4-1.07-6.6s-1-5.18-1.43-7.13c-.81-3.9-1.08-5,.34,2.86-.42-1.88-.79-3.74-1.14-5.63s-.86-3.77-1.3-5.73a131.37,131.37,0,0,0-3.54-12.82c-.61-2.42-.43-1.85-1.49-5.35.91,2.7,1.38,3.87,1.76,4.76s.59,1.5,1.07,3.07a108.63,108.63,0,0,0-3.84-10.41c-.26-.76-.46-1.37-.64-1.89l-.51-1.39c-.32-.87-.64-1.74-1.23-3.24-2.07-4.57,1.14,3.84-.53.22l-1.62-4a17.48,17.48,0,0,0-1.14-2.36c-.9-2,.58,1.06-.5-1.29,1.75,3.33,1.88,3.63,2.14,3.61-1.16-2.54-2.62-5.54-4.15-8.82-.81-1.62-1.72-3.27-2.61-5l-1.36-2.57c-.45-.87-.91-1.73-1.43-2.57l-3-5.06c-.5-.84-1-1.68-1.49-2.49l-1.55-2.37-2.95-4.49c-.91-1.45-1.94-2.71-2.79-3.94s-.75-.89-.92-1c-3.14-4.46-4.53-6.15-6.62-8.91a62.5,62.5,0,0,1,4.46,5.33c-.54-.94-8.34-10.72-7.9-9.66l-3-3.6c-1.05-1.22-2.11-2.48-3.3-3.66L441.06,164l-1.83-1.87c-.63-.61-1.29-1.2-1.94-1.8l-3.94-3.63c-.67-.61-1.31-1.25-2-1.82l-2.08-1.75-4.15-3.51-1-.89L423,147.9l-2.12-1.66c.44.29,1.18.82,2,1.45.43.31.88.65,1.33,1l1.32,1.1a31.21,31.21,0,0,0,3,2.42c1.36,1.14,2.27,1.93,3.05,2.62s1.34,1.31,2.09,2c2.13,2,3,2.59,6.16,5.66-1.89-2.12-.2-.67,1.27.67-1.7-1.87-3.29-3.26-4.62-4.48s-2.48-2.22-3.53-3.11c-.25-.26-.56-.58-.93-.93l-1.25-1.1-2.68-2.26c-1.65-1.37-2.74-2.21-1.56-1.07-.34-.33-1.07-1-2.06-1.87s-2.32-1.84-3.72-2.92-2.91-2.23-4.39-3.32-3-2-4.29-2.76l-3.87-2.68c-1.18-.77-2.31-1.43-3.43-2.13l-3.57-2.19-2.05-1.26-2.4-1.33a10.24,10.24,0,0,0-2.62-1.07c-1.63-.87-3.23-1.81-4.9-2.62,2.7,1.09-1.69-1.07.15-.32,4.23,2.4,12.55,6.46,5,2.4,1.26.63,5.27,2.73,7.33,4-.68-.28,0,.23,1.62,1.22l3,1.83,1.84,1.12,2,1.31,4.22,2.85,2.17,1.46,2.08,1.56,3.89,2.95c1.21.92,2.32,1.76,3.19,2.56,1.46,1.21,1,.67,1.19.77,2.58,2.14,2.27,2,5.31,4.52.08.17-1.37-1-1.17-.76.36.27.76.58,1.21.94l1.4,1.27,3.59,3.37c2.27,2.07.31-.17,3.26,2.68-3.38-3.39-3.29-3.24-3.89-4-1.48-1.36-.44-.24-2.14-1.81-1.89-1.58,1,.76.14-.17,1.91,1.89,2.58,2.4,5.13,4.76.09.18-1.31-1.09-1.14-.82s.62.61,1.09,1.07a7.05,7.05,0,0,1,.87.94c1.44,1.4,1.59,1.38,3.09,2.84,2.43,2.65-2.17-1.73,1.63,2.3-.24-.14-4.59-4.8-4-3.9,1,1.06,3.43,3.51,5.69,5.91s4.24,4.82,4.63,5.44c-2-2.12-5.64-6.49-6.45-7.33-4.42-4.24-3.24-2.62-3.46-2.48,4.67,4.7,6.47,6.75,8.31,8.68.9,1,1.83,1.91,3,3.27s2.51,3.15,4.45,5.67c1.92,2.35,1.91,2.3,1.9,2.06a15.16,15.16,0,0,1-1.69-2.22c1.17,1.5,2,2.66,2.64,3.58s1.21,1.6,1.73,2.27l1.66,2.12a33,33,0,0,1,2.23,3.24c-.13-.87-3.08-4.51-7.19-10.3-.54-.52,3,4,2.34,3.47L459.33,184c-.57-.79-1.16-1.5-1.68-2.18a38.93,38.93,0,0,0-2.56-3.09c-1.21-1.59-1.54-2.16-1.54-2.34,2,2.58,3.77,4.68,4.33,5.47,1.82,2.19,1.78,2.14,2.68,3.21-1.47-2.08-1.32-1.89-1.13-1.73s.35.31-1.27-1.7a3.94,3.94,0,0,0,.86.79,7.14,7.14,0,0,1,.79.88c.41.53,1,1.35,1.91,2.62-.4-.64-1.05-1.57-1.82-2.65s-1.8-2.24-2.77-3.42c-1.95-2.37-3.91-4.76-5-5.89-3.22-3.72,2.4,2.53,1.95,2-.91-1.2-2.34-2.73-3.48-4l-1.48-1.6a4.81,4.81,0,0,0-.65-.64c-2.58-3.07,2.9,3,3.92,4l1.45,1.71c.43.56.86,1.09,1.27,1.62.84,1,1.64,2,2.48,3.07s1.78,2.12,2.74,3.42l3.25,4.52c2.25,3.14.94,1,2.59,3.31-4.21-5.92-.9-1.68-4.74-7,.85,1,.85,1,.21-.15-.87-1.13-.9-1.15-2.62-3.29.72.62-.17-.57-3.25-4.61-1.23-1.51-.66-.71-.41-.33.12.19.16.28-.14-.08s-.94-1.18-2.3-2.69c.75,1,.67.89,3.49,4.38A32.09,32.09,0,0,1,454,175l-4.22-4.6c-.25-.5,4.16,4.59,3,3q-1.18-1.45-3-3.59l-2-2.31L445.31,165c-.41-.31.71.84,1.89,2.07-1-.82-3.95-4-2.83-3.09,1.39,1.39,2.88,2.83,3.74,3.72s1.16,1.18.34.14c1.21,1.44,1.74,2.16,3.7,4.24-1.07-1.4-2.81-3.43,1.11.92-.52-.72-1.49-1.8-2.65-3.09s-2.48-2.83-3.9-4.29c.19,0,1.94,1.79.16-.15-3.28-3.35-1.18-.85-3.19-2.82.22.35,2.57,2.75,3.84,4.12-2.36-2.21-4.62-5-4-3.94-2.38-2.39-2-2.28-5-4.95-.16-.25,0-.22.6.32a42.51,42.51,0,0,1,3.61,3.45c-.67-.9-2.67-2.93.18-.19-1.15-1.16-1.74-1.81-2-2-3.25-3.05-.53-.19-4.25-3.7,2.44,2.55-.89-.48,1.7,2.29a92.22,92.22,0,0,0-8.35-7.5c.46.47,1.75,1.59,2.92,2.63a18.76,18.76,0,0,1,2.16,2.2c-.88-.81-1.54-1.43-2.06-1.87s-.89-.69-1.12-.85c.5.22-1.13-1.14-3-2.69s-3.94-3.31-4.42-3.79c1.08.83,1.8,1.49,2.36,1.94s.95.74,1.27,1a22.4,22.4,0,0,1,2,1.36c-1-.92-2.69-2.38-4.61-4l-6.31-4.93,6.15,4.58c1.76,1.37,3.48,2.86,6.1,4.93-2.47-2.14-8-6.79-4.15-3.83-.17-.19-.66-.58-1.12-1a10.17,10.17,0,0,1-1.05-.83c-1.72-1.2,1.23,1.23-2.46-1.42-2.19-1.64-2.62-2-3.13-2.47a26.84,26.84,0,0,0-3.62-2.66c-.36-.35.68.33,2,1.23s2.91,2.18,3.77,2.79c.23.09-3.93-3.1-5.67-4.2-1.36-.92-1-.6-1.24-.68-4.25-3.32-12.81-8.09-13-8.56-.93-.6-1.64-1-2.18-1.26s-.91-.46-1.2-.6c-.59-.27-.89-.38-1.64-.75-2.37-1.16-.1-.14.07-.11-3.21-1.78-4.47-2.41-3.78-1.91l-1.68-1-2.05-1-5.07-2.51c-2.46-1,5,2.49,3.74,2l-4.05-2c-1.18-.57-2.2-1.11-3.31-1.55-2.18-.93-4.46-1.89-8.11-3.38a13.65,13.65,0,0,0,2.64,1.29l6.39,2.73c-3.51-1.37-3.84-1.52-2.71-.85-3.2-1.17-5.65-2.66-7.8-3.23-2-.73.54.14,0-.12-2-.74-4-1.43-6.31-2.23s-5.07-1.6-8.42-2.59c2.52.62-.71-.48-5.37-1.72-2.74-.79,2.55.39-5.41-1.58-.73-.29,1.31.21,3.55.76l3.18.78a8.46,8.46,0,0,0,1.52.39,6.84,6.84,0,0,1,1.33.45c-.26,0,.51.2,1.34.46s-2.82-.77-4.08-1.11c1.18.53,3.95,1.24,8.07,2.51-.73-.31-4-1.32-1.29-.58-1.5-.54-4.07-1.37-7-2.28s-6.31-1.6-9.29-2.32c.43.2,0,.17-.81,0s-2.12-.32-3.42-.54c3.69.8,5.56,1.54,2.66,1.06a31.58,31.58,0,0,0-6.94-1.11c-2.89-.58-3.66-.68-5.53-1,1.26.28.79.22-.81,0l-3.16-.47c-1.29-.17-2.77-.44-4.4-.54,1.7-.06-9.92-1.21-12.57-1.28,5.19.07-4.44-.36-2.79-.48-1.42,0-2.57-.06-3.84,0l-4.6,0c.89.08,7.09,0,5.62.18-6.91.08-9.71-.07-15.44.43-1.82,0-3.45.09-5,.19l-4.78.51c4-.37,10.83-.59,15.42-.78.85.26-.35.32,2.81.48h-3.18l-2.42.09c-1.63.09-1.18.14-1.38.2.08,0,1.56,0,3.32-.12s3.83,0,5.06,0c-.17.08,1.7.09,1.4.17l-5.05,0c-1.77,0-3.73.15-6.12.25,6.16-.16,1.62.18,0,.49-1.52.06-.95,0-2.81,0-2.65.19-3,.48-6.91.9-.4.14,4-.35,4.18-.29-1.67.33-4.61.66-9.67,1.26-.55-.16,6.11-.7,4.13-.71-1.45.16-2.95.22-4.38.45l-4.07.56c-2.51.35-4.53.53-5.39.6l-5.46,1.12c-.19.12,1.69-.24,1.39-.1l-3.09.64-1.54.3-1.51.37-6.09,1.44c-.57,0,2.44-.71,1.3-.55a66.08,66.08,0,0,0,6.74-1.82c-.17-.17-8.1,2-6.84,1.44,4.67-1.08-.43-.32-4.16.66-2.47.83-2.66,1.07-8,2.65a26.64,26.64,0,0,0-3.75,1.12c-1.94.66-4.43,1.47-6.88,2.39-1.2.52-1.94.87-2.55,1.18-2,.84-2.78,1.1-3.62,1.41a35.83,35.83,0,0,0-4.14,1.76c1.67-1,6.39-2.61,7.71-3.29a68.79,68.79,0,0,0-6.58,2.38c-1.46.75-3.64,1.8-3.73,2-1.94.8-5.7,2.59-5,2.46-4,2.12-1.77.76-5,2.48a6.19,6.19,0,0,0-1.22.69c-4,2,1.13-.73,3.69-2-4.2,2,.14-.18,3.66-2.08a177.65,177.65,0,0,0-17.32,9.26,51.62,51.62,0,0,0-6,3.7c-.38.08,1.29-1.09,4.59-3.25,2.11-1.17,5.4-2.93,9.24-5.12,4-2,8.44-4.43,13.22-6.47l-2.94,1.26-1.57.69-1.59.78-6.68,3.31c-2.22,1.18-4.4,2.44-6.47,3.6-1,.59-2.05,1.12-3,1.7l-2.64,1.67-3.34,2.45c-.57.43-1.22.88-2,1.44l-2.58,2c.51-.31,1.23-.78,2.33-1.54s2.64-1.71,4.71-3.09c1.59-1.05.92-.73,1.08-.91,1.22-.78,2.34-1.49,3.05-1.92s1-.51.61-.17c-1.61,1.09-5.66,3.55-4.65,3.15-1.05.66-2.13,1.34-2.4,1.46a10.62,10.62,0,0,1-1.28,1c-.73.52-1.73,1.32-3.17,2.41.28-.16.91-.59,1.67-1.13l1.23-.88,1.34-.86c1.75-1.13,3.26-2.07,2.85-1.63-1.37.88-5,3-4.66,3.08-3.57,2.29-6,4.39-5.8,3.92-2,1.37-2.1,1.59-2.21,1.74-2.56,2-.73.34-.13-.18-.91.65-7,5.14-7.72,6-2,1.9-.41.2-.11-.13,2.35-2,4.09-3.26,5.58-4.42s2.78-2.16,4.43-3.26a18.19,18.19,0,0,0-2.39,1.49c-2.77,2.28-4.81,3.86-7.08,5.61s-4.58,3.85-8,7c.16.05,2.44-2.1,4.29-3.64l.14.16c-2.12,1.82-3.69,3.25-5.25,4.65a9,9,0,0,1,1.23-1.23c.72-.63,1.73-1.47,2.91-2.55-1.16,1-2.22,1.83-3.07,2.58L156,158.74c-.88.77-.85.65.57-.89-.29.21-2,1.93-2.08,1.9-.53.57-.92,1.05-1.61,1.77s-1.7,1.64-3.27,3.29a22,22,0,0,0,2-1.94c-1,1-2.19,2.28-3.8,3.93a85.4,85.4,0,0,0-5.73,6.39c-.74.62.69-1.21.61-1.34-1.94,2.28-1.68,2.09-1.71,2.25-2.63,3.27,1.55-2.24-2,2a6.53,6.53,0,0,0-1,1.4c-.09.2-.32.43-1.49,2l2.73-3.22a17.35,17.35,0,0,1-1.56,2.12c-.69.94-1.11,1.57,0,.23,1.47-2,3-3.67,4.59-5.52s3.46-3.75,5.56-6.12c-.61.94,1.46-1.18,1.28-.73-2.51,2.65-3.43,3.71-2.78,3.17a37.23,37.23,0,0,0-2.58,2.81c-.53.65-.84,1.07-1.14,1.49a51,51,0,0,1-3.51,4.24l.1.08c.31-.19,1.5-1.87,3.6-4.28.75-.69-.79,1.19-.7,1.24-.72.78-1.57,1.77-2.46,2.83-.44.53-.9,1.06-1.33,1.61l-1.21,1.64a40,40,0,0,1-2.86,3.73c-.89,1.32-.22.5-1.47,2.37,1.26-1.53,3.3-4.24,5.6-7.3,1.18-1.49,2.5-3,3.77-4.55l1.92-2.25a27.93,27.93,0,0,1,1.91-2.1c1.09-1.22.46-.59-.62.52s-2.48,2.83-3.15,3.59a17.52,17.52,0,0,1,1.46-1.84c.61-.7,1.31-1.52,2.17-2.39.37-.5,0-.13-.68.55s-1.51,1.73-2.19,2.49c.33-.45,1.09-1.41,1.95-2.45l2.57-2.88c-.16.11-.82.78-1.59,1.59-.38.41-.8.84-1.2,1.26l-1.06,1.21a106,106,0,0,1,11.65-12.06c-1.59,1.77-2.11,1.87-4.05,3.85a13,13,0,0,0-1.77,2.16c.73-.7,1.74-1.85,2.95-3-.74.91,0,.33,1.52-1.1l2.87-2.7c1.12-1.06,2.35-2.28,3.74-3.44a155,155,0,0,1,14.33-11.5c-1.49,1.09-3.15,2.46-4.94,3.83s-3.64,2.81-5.31,4.31l-4.68,4.08c-1.39,1.2-2.42,2.32-3.14,3-1.73,1.58-5,4.5-7,6.75-.16.36,2.25-2.21,2.09-1.85-2.56,2.71-3.56,3.83-4.37,4.74l-1.23,1.38c-.48.5-1.07,1.14-1.9,2.11-.24.44.44-.3,1.22-1.14a19.41,19.41,0,0,1,1.82-1.73c-1.61,1.72-1.76,1.94-1.81,2.1-1.42,1.65-.87.82-3.65,4.19-2.32,2.91.22.2,2.82-3.07-.85,1.17-3,3.75-2.44,3.38-7.85,9.72-8.09,11-15.23,21.44a10.41,10.41,0,0,1,1.21-2.5c1.57-2.14,1.4-2.09,3.92-5.73.5-.48-1.56,2.59.22.15l1.2-2.09c.48-.74,1-1.57,1.76-2.59-1.77,2.21-3.6,4.59-1,1-.35.17-3.51,5-4,5.62-.71,1.09-1.13,1.79-1.46,2.37-1.19,1.68-1.27,1.58-1.73,2.2,1.16-1.68,5.16-7.51,6.27-9.2-.49.53-1.26,1.63-1.73,2.18-2.11,3.07,2.22-2.95-1.46,2.37-.52.47,0-.47,1.28-2.5-.24.27-1.59,2.28-1.64,2.26-1.77,2.69.23.12-2.91,4.77-1.86,2.83,1-1.82.58-1.29-2.82,4.4-.32.92-3.52,6,.58-1,.87-1.63.55-1.32-.91,1.48-1.46,2.41-2,3.26s-.93,1.59-1.54,2.77a19.9,19.9,0,0,0,1.6-2.35c1-1.48,2.37-3.75,4.36-7,.28-.19-2.5,4.28-3.47,6,.3-.31,3.45-5.6,3-4.65l-2.79,4.51a39.46,39.46,0,0,0-2.21,3.81c-.44,1.08,1-1.65.85-1.1a11.79,11.79,0,0,0-1.25,2.49c-1,1.66-2,3.65-3,5.45s-1.63,3.49-2,4.4a187.16,187.16,0,0,0-13.58,34.85c.23-1.2.56-2,1.57-5.32-.36.78-1.78,5.5-1.87,5.24,1.21-4.31.91-3.31.16-1.41,1-3.57,3.12-10.83,1.65-6.79a35.27,35.27,0,0,1,1.35-3.92c.31-.8.55-1.38,1-2.62.59-1.77.79-2.64,1.87-5.27a41.91,41.91,0,0,0-2.22,5.65c-.56,1.56-1.2,3.23-1.73,4.79l-1.26,4c.89-3.3-.68,1.95-.62,1.26.31-1.08.62-2.19,1.19-4-.26.66-.64,1.8-1.14,3.37l-.84,2.68c-.31,1-.66,2.08-.94,3.29.25-1.46,0-1.08-1.27,4,.21-1.24.91-4.18.77-4.16.33-1.41.73-2.47,1.06-3.5s.63-2,1-3.19c-.72,2.27-2.88,8.92-.9,2.65.11-.61-.08-.11-.37.8s-.71,2.19-1,3.19c-.28,1.28-.43,2.08-.55,2.76-.55,1.89,0-.73-.68,1.28.32-1,.72-2.76,1-4.25a8.58,8.58,0,0,1,.76-2.53c.53-1.77.57-2.14,1.15-4.06-.39,1-1.22,3.32-2,6.1s-1.53,6-2.22,8.76c-.48,2.4-.31,1.32,0-.16s.73-3.36.48-2.62a6.54,6.54,0,0,1,.38-1.35l.69-2.74c-.89,3.9-.46,2.3.31-.66.2-.73.38-1.57.64-2.4l.78-2.5,1.21-3.83c.69-2.41-.39.67.16-1.44.88-2.91.33-.55.62-1.27,2.35-6.43,1.66-5,3.19-9.3,2.79-6.47.73-1.1,2.54-5-.49,1.3-1.39,3.52-1.46,3.93l-2.93,7.91c.19-.34.79-1.92,1.47-3.78s1.42-4,2.08-5.38c1.69-4.21,1-2.92,3.68-9.1-.38.49-1.78,4-1.29,2.48a27.66,27.66,0,0,1,1.15-2.54c.31-.61.53-1,.67-1.25l1.71-3.86-1.83,3.61-1.15,2.33-1.25,2.93c1.94-5,.13-.49-1.26,2.55-.52,1.32-.46,1.37-1.54,3.9.59-1.54.39-1.14-.08-.08s-1.09,2.85-1.54,4c.48-1.39.92-2.76,1.53-4.22l2.1-4.94c-.14.23-.59,1.29-.63,1.27-2,3.88-6.43,16.61-8.25,22.48l1.49-4.79c.44-1.35.86-2.83,1.3-4.13s.86-2.43,1.09-3.17c-1.05,2.12-3.31,9.95-3.72,10.66l2.1-6.75c.83-2.36,1.65-4.73,2.33-6.66l.13,0a112.06,112.06,0,0,1,4.69-11.81l.62-1.59a2.13,2.13,0,0,0,.17-.47,3.4,3.4,0,0,0-.45.68c2.32-5,2.27-4.5,3.78-7.6-.31.29,1.1-3.22-1,1.05-1.83,4-.21.74-.34,1.42-1.91,4-1.44,2.37-2.48,5.1-1,2.54-1,1.78.48-1.34-1.28,2.56-1.78,3.64-4,9-2.16,4.95,2.13-5.08,1.56-4-.13.14-1,2.39-1.74,4.12s-1.09,3-.37,1.12c-.7,1.88-1.2,3.41-1.84,5.19l-1.06,3c-.4,1.1-.87,2.36-1.31,3.88a56.75,56.75,0,0,1,2.27-6.69,50.4,50.4,0,0,0-2,5.29c-.69,2.17-.62,1.84-.27.61s1.13-3.29,1.61-4.64c-.79,1.38-.68,1.6-3.66,10.74.06,0,.54-1.66.87-2.7-.29,1.18-.49,2-.76,2.94s-.65,2.06-1.07,3.9c0,.12.06.26.47-1.33-.68,3.43-1.6,6.76-2.53,11,.36-1.32.83-3.67,1.37-5.47.17-.09.57-.59,1.24-2.61-.89,3.31-1.91,7.25-2,6.79l1-4.11c-1.31,5.05-.57,1.41-1.54,5.43-.39,2.06.16-.53.13,0-.4,1.73-1,4.52-1.53,7.22l-.4,2-.3,1.86c-.19,1.16-.36,2.15-.49,2.83-.14,1.3-.74,5.14-.48,4.21-.56,3-1,10.38-1.29,11.22.21-3.1.59-6,1.16-11.24.29-2.09-.14.56-.13,0,.28-1.49.57-3.36.88-5.49l.48-3.39.7-3.69c-.78,3.32-1.18,6.47-1.62,9.47-.21,1.5-.44,3-.61,4.42l-.38,4.32L91.72,289c-.28,3-.3,4.75-.45,6.84l-.21,3.55L91,301.7l0,2.85c.09-8.07.07,2,.22-1.41v-1.45l0-1.13,0-1.82c0-1.2.06-2.58.22-5.5s0,3.2.26,0l-.26,4.48-.13,2.46c-.06.88-.1,1.85-.07,2.95,0,2.87.12-.29.12-1.42.13,1.2,0,4.55,0,7.07-.16-2.5-.13-2.8-.22,1.42l.17,3.12c0,1.07.07,2.16.09,3.25s0,2.18.09,3.25a23.76,23.76,0,0,0,.3,3.11c.61,5.79-.22-1.09.11,2.82a8.38,8.38,0,0,1,.35,2.58l.27,3.06c.16,1.21.39,2.61.66,4.2-.74-4.61-.87-8.07-1.18-11.26l-.2-2.37c-.06-.78-.08-1.58-.12-2.38l-.26-5.14c-.13-3.73.53,6.11,0-2.82,0-1.77.26,4.56.32,2.8l.21,4.95.09,2.27.25,2.67c-.23-1,0,1.44-.12,1.42.59,4.61.58,5.35.69,7,.63,3-.15-2.19-.14-4.25l.31,3,.29,2.1c.17,1.29.34,2.53.68,4.73h.09c-.16-1.33-.49-3.57-.81-5.76s-.44-4.34-.53-5.46c-.45-4.2,0,1.36-.17,0-.55-5.24-.31-4.33,0-1.43-.14-.59-1.1-18.39-1-15.48-.16-9,.31,4.39.24-7.06a7.7,7.7,0,0,0,0,1V306a40,40,0,0,1,0-4.32c.11-1,.23-1.71.29-2.72s-.22.13-.28-1.43c.06-1.15.11-1.4.17-2.83a5.42,5.42,0,0,0,.11-1.39c-.11,3.17,0,2.63.22,0,0,.79-.11,3.91,0,1.4,0,.66,0,1.76-.12,3.2l-.15,2.41-.06,1.38v1.47c0-.27,0-1.43-.09-1.42.09,3.3.13,7.23,0,9.88.24,3.49.53,8.38.73,9.84-.15-.41-.06,1.75.81,9.85.3,1.35-.6-6.92-.07-2.84.14,1.36.2,2.57.35,3.64l.37,2.87c.21,1.71.38,3,.53,4.31l.23,1.87c.09.62.21,1.25.33,1.93l.91,4.93c.2.32-.49-3.16-.29-2.83.27,1.44.62,3.91,1.09,6.33s1.1,4.79,1.54,6.08a47.89,47.89,0,0,0,1.2,4.83l1.79,6.06c.35,1-3.09-9.72-1.3-4l-1-3.28c-.34-1.12-.59-2.28-.88-3.46-.57-2.36-1.19-4.78-1.73-7.25L95.12,343c-.28-1.24-.47-2.49-.66-3.74l-.6-3.71.46,3.35.36,2.55.53,2.76c.74,3.71,1.4,7.34,1.7,8,1.63,6.78-1.69-5.26,1.16,5.53-.61-2.15-1.3-4.64-1.9-7.44s-1.12-5.87-1.73-9.12c-.53-3.47-.21-.39-.18,0,.42,2.25.51,2.38.87,4.15l1,5.38c.52,2.29,1.16,4.81,1.62,6.73.93,3.84,1.27,5.27-.65-2.4-.27-1.2-.58-2.51-.92-3.89l-.9-4.41-1-4.76c-.31-1.63-.52-3.31-.77-5,.24,2.21.39,3.58.64,5.65-.23-1.12-.35-2.28-.65-4.22.28,1.91.49,3.47.75,4.84s.43,2.57.63,3.75l.64,3.66c.24,1.31.65,2.74,1.1,4.49,0-.23-.23-1.1-.5-2.16l-.42-1.7-.34-1.69c.3,1.17.81,3.23,1.35,5.51S97.81,360,98.43,362c0,.31-.8-2.27-.12,0a10.4,10.4,0,0,1-.7-2.75c-1-3.11-.1.55-.17,1.52-.71-2.95-.71-2.61-.82-2.73-.78-3.28-1.4-5.63-1.77-7.75s-.69-4-1.08-6.19c-1.11-4.88,1.42,7.71.3,2.84-.49-2.63-.06-1-.79-4.19,0,.49.42,2.47.43,2.81.6,3,.92,4.43,1,4.16,1.12,5.94-1.13-4.24-2-8.32,0,.38,1.21,6.14,1.3,7a20.38,20.38,0,0,0,.57,2.48c.1.37.26.84.8,3.06-.34-.36.74,3.6,1.64,6.94-.51-1.62-.29-.33.15,1.43,1.08,3.53.07-1.1,1.45,4.05-.17-.77.69,1.53-.21-1.43.66,2.13,1.72,6,3.19,10,.72,2,1.37,4.14,2.15,6.1l2.16,5.41c0,.25-1.23-2.81-2.25-5.38s-1.65-4.75-1-2.54c-.32-.54-1.51-4.24-.87-2.73a54.91,54.91,0,0,1-2.27-6.76,14.27,14.27,0,0,0-1-2.67c.61,2.09.78,2.89,1.06,4s.74,2.42,1.87,5.58c.47,1.94.1,1,1.75,5.44,0,.21-2.19-5.76-.65-1.26,0,.26-1.72-4.79-2.44-6.75.3.52-.77-2.48-.26-1.41-1.14-3.36-1.39-4.2-2.12-6.83,1.37,5.1-1.51-4.75-1.08-2.67,1.5,5.21.91,2.59,2.15,6.83-.26-.65.18,1,.71,2.53s1,2.84.44,1.61c1,2.33,1.77,4.76,2.41,6.74a38.43,38.43,0,0,0,1.6,4c1.56,3.9-.81-1.69-.2.08-.57-1.5-1.19-2.94-1.72-4.48l-1.69-5c.42,1.56,1.08,3.69,2,6.21s2.24,5.38,3.59,8.52a13.12,13.12,0,0,0-1-2.68c.27.59.67,1.5,1.14,2.61l1.74,3.75c1.28,2.71,2.58,5.74,3.75,7.91A27.66,27.66,0,0,1,110,398c-.74-1.61-1.37-3-.83-2-2.11-4.53-3-5.92-3.8-7.73.14.37.36,1,.66,1.67l1.06,2.29c.74,1.59,1.49,3.18,1.84,3.88,1.53,3.47,1.79,4,1,2.73,1.49,2.83,2.44,4.48,2.81,5,1.81,3.46,2.26,4.48,2.72,5.38a52.92,52.92,0,0,0,2.62,4.81c-.69-1-1.22-1.79-3-4.9.06,0,.92,1.5,1.5,2.46.31.1-2.54-4.36-3.39-6.32.33.51,2.14,4,1.48,2.45l-2.71-5.07c.81,1.67.72,1.72-.2.1-.38-.85-1.23-2.53-1.81-3.63s-.81-1.66-.22-.16l-2-4.65-1.21-2.66c-.45-.95-.94-2-1.44-3.21.21.36.55,1.19.88,1.81s.59,1.06.5.71c-2.75-6-2.19-4.47-3.83-7.71l2.8,6.61a8.83,8.83,0,0,0,1.16,2.62c.74,1.78.33,1.19-.32.15-1.39-3-1.29-3-.45-1.38-.85-1.61-2.91-7-2.4-5.25-.59-1.92-2.09-4.9-3.05-8.07a22.2,22.2,0,0,0,.87,2.94c.61,1.6,1.45,3.7,2.34,5.91l1.34,3.34,1.42,3.14c.91,2,1.66,3.69,2.09,4.73-1.59-3.44-2.6-5.6-3.71-8.13l-1.74-4.33-1.11-2.75c-.42-1-.87-2.12-1.3-3.38a16.59,16.59,0,0,0,.55,1.76c.31.79.56,1.46.3,1,1.35,3.12,1.33,2.95,2.19,5.36,0,.26-2-4.74-2.76-6.67.4,1.24,1.83,4.71,2.6,6.74l1.77,3.93c.49,1.42,1.47,3.63,4.13,9.25-.75-1.28-.79-1.19-1.47-2.51-1.87-4.13-.23-.71-1-2.71-.6-1.21-1-1.95-1.35-2.57a34,34,0,0,1-1.51-3.56l-.59-1.81c-.66-1.39-1.27-2.64-1.88-3.92-.28-.81-.9-2.19-1.27-3.4a11.67,11.67,0,0,1-.63-2.08l-1.73-4.76c-.55-1.4-1-2.84-1.59-4.8-.11-.57-.52-2-1-3.62s-1-3.42-1.28-4.76c-.87-3.52-1.16-4.37-1.53-5.58.16.88.44,2.22.79,3.78s.73,3.39,1.28,5.17c1.06,3.58,2.06,7.26,2.78,9.23a7.26,7.26,0,0,1-.69-1.83L95,366a58.89,58.89,0,0,0,2,7c-.84-2.31-1.62-5.12-2.43-7.65-.39-1.27-.79-2.47-1.09-3.53l-.75-2.69c.32.81-.61-2.68-1.57-6.4s-1.59-7.74-1.42-7.79c.57,3.14,1,5.74,1.7,8.52s1.45,5.81,2.57,9.83l.17-.05c-.93-3.51-1.08-3.35-1.5-5.59-.82-3.36,0,.84-1.18-4.19.83,2.91-.33-1.51-.46-2.87.32,1.1,1.17,4.94,1.77,7-.36-1.59-.51-2.28-.69-3.11s-.46-1.8-.82-4c.13.4.32,1.28.52,2s.38,1.17.36.81c-.53-1.87-.54-1.79-1.08-4.19-.62-3.18.48,1.81.22-.05-.63-2.58-1.77-7.7-1.58-8.53-.13-.38-.43-2.14-.78-4.35l-.55-3.54c-.18-1.21-.28-2.44-.41-3.53.3,2.25.36,1.57-.12-2.91.44,3,0-2.9.69,2.84a9.16,9.16,0,0,0-.07-1l-.18-1.85c-.4-4.08-.12,1.77-.64-4.28,0,.61.19,3.1.06,2.9l-.3-2.92c0-.84-.11-1.5-.15-1.88-.09-.77-.12-.4,0,1.93-.33-4.32-.16-5.51-.56-10.1l.26-7.07c0-2.63.28-5.8.51-10.27-.07-1-.22,3-.33,4.33-.13.56.33-6.57.07-4.34.19-2.46.1.24.33-1.42v-1.67l.13-1.8c.1-1.23.23-2.51.42-3.72,0-.23.13-2.48.31-4.45s.54-3.63.5-2.73c.81-5.19,1-7.62,1.48-10-.59,2.65-.79,4.48-1,5.9l-.62,3.52c-.18,1.07-.43,2.18-.62,3.79l-.71,6.8c-.38,4.3.22-1.37.17,0l-.29,2.61L87.17,293c-.1,1.08-.19,2.13-.31,4.25-.12,3,.18.35,0,4.34,0,4.5-.08,4.62-.2,4.34,0-3.82,0-5,0-6.48s0-3.16.22-8c-.16,2-.16,1.35-.14.15s.2-2.93.14-3c.13-1.17.27-2.36.46-4.34-.23,3.57-.37,7.35-.53,11.58.07-.75.15-1.69.22-2.76l.12-1.7.2-1.85c.28-2.56.58-5.42.87-8.16C89,275.91,89.72,271,90,270c.51-2.62,0-.9.38-2.86.31-.53,1.54-7.33,2.73-11.23-.23,1.08-.28,1.52-.18,1.43.43-1.9,1-3.9,1.44-5.82s1.14-3.73,1.54-5.33a9.73,9.73,0,0,0-.53,1.56c-.27.94-.69,2.14-1,3.32-.58,2.34-1.1,4.44-1,3.43,1.08-4.66,2.13-7.5,2.87-9.87s1.33-4.22,2.26-6.67c-.58,1.34,0-.65,2.8-8.22-.16.25-.56,1.36-.6,1.34a13.5,13.5,0,0,0-.9,2.74c-.4,1.1-.52,1.33-1,2.71a6,6,0,0,0-.53,1.35,192.24,192.24,0,0,1,7.4-18.65c1.32-2.7,2.64-5.42,4.08-8.39s3.26-6.07,5.23-9.73c-.76,1.19-3.39,6.38-3.57,6.28,2.28-4.08,3.5-6.55,5.06-9l2.47-4.08,1.56-2.52,2.06-3-.07,0c1.15-1.56.42-.28.22.15,1-1.4,1.46-2.12,1.66-2.35a37.22,37.22,0,0,1,3.24-4.68c1.13-1.42,1.56-1.89-.77,1.1a38.78,38.78,0,0,0,2.72-3.37c2-2.71,1.25-1.82.7-1.28l2.52-3.26L134.6,173c.85-1,1.15-1.49,1.09-1.53,1-1.35,1.12-1.22.07.06,3.88-4.56,5.93-7.46,1.65-2.38.2-.3,1.83-2.21,1.81-2.28,2.07-2.19,3.09-3.14,3.14-3,2-2.35-1.48,1.11,3.81-4.36a6,6,0,0,1-1.08,1c-.78.81-2.2,2.38-1.94,2.14-.62.58-1.49,1.44-2.56,2.53s-2.29,2.44-3.61,4l-4.34,5.1c-1.48,1.88-3,3.91-4.55,6,1.07-1.5.5-.79-.51.5l-1.68,2.18-1.35,1.9c.22-.7,5.62-8,5.16-7a12.83,12.83,0,0,1-1.83,2.26c-2.59,3.51.61-.51,1.9-2.21,2.74-4.15,10.89-13.2,16.21-18.54,2.58-2.89-5.4,5.45-3.19,3l-3.34,3.61c-1.06,1.15-2,2.32-2.92,3.39-1.81,2.17-3.54,4.06-5,5.9l-4,5.06-1.75,2.23-1.53,2.15c-2.13,3.09,1.06-1.69-.14-.1,1-1.39.75-1,.92-1.11,1.09-1.61,2.32-3.1,3.47-4.66-1,1.27-2.57,3.25-1.94,2.19,3.1-4.05,5-6.71,7.22-9.15l3.35-3.89c1.18-1.45,2.61-3,4.34-4.82a46.19,46.19,0,0,0,4-4c2.2-2.19,4.84-4.7,6.38-6.14-.52.41-2,1.79-3.79,3.51-.88.87-1.89,1.77-2.82,2.77l-2.71,2.88c2.26-2.74,6.63-6.76,11.31-11.28.51-.53-.13,0-1.09.87l-3.17,3.09a43.65,43.65,0,0,1,3.22-3.29c1.63-1.47,3.61-3.16,5.25-4.68-1,1-1.7,1.68-3.15,3l5-4.23c.9-.8,1.92-1.57,3-2.4l3.28-2.61c.05.12-3.16,2.4-2.22,1.89-3.21,2.31-5.41,4.56-8.88,7.48.35-.18,3-2.45,6-5.09l8.58-6.86c-1.1.78-2.16,1.62-2.32,1.66s.08-.12.6-.55l1.05-.85,1.74-1.25c0,.07-1.44,1-2.31,1.77,1.9-1.36,3.08-2.19,3.74-2.75.34-.28.55-.47.68-.6a.86.86,0,0,0,.19-.19c4.86-3.53-.47.59-2.22,1.87,1.89-1.24,3.73-2.56,6-4.17s5-3.32,8.45-5.61c.15-.22-4.32,2.78-6.11,3.92.18-.17-.3.1-1.25.71,1.42-1,3.3-2.19,5.4-3.56,1.06-.66,2.14-1.43,3.32-2.09l3.56-2.06c4.74-2.87,9.74-5.25,12.75-6.94,3.55-1.77-3.39,1.85-1.19.87-3,1.49-5.36,2.69-7.54,3.9s-4.16,2.43-6.47,3.71c-2.84,1.71,3.65-2,2.63-1.24a201.06,201.06,0,0,1,31.54-15.08,210.11,210.11,0,0,1,37.46-10.22,63.69,63.69,0,0,1,7.12-1.3c-1.5.43,5.35-.88,4.31-.5,5.33-.67,3.5-.52,8.64-.94,6.52-.85-7.64.6-4.35.08a15.82,15.82,0,0,0-2.88.42c-4.51.62-3.82.42-7.19.9,1.72-.38,5.48-.78,7.17-1.08-1.71.14-4.92.6-8.09,1l-2.33.33c-.76.12-1.48.29-2.15.41-1.35.28-2.48.52-3.2.69,5.9-1.08,3.9-.5,7.19-1l-2.06.34-1.64.31c-1,.18-1.81.31-2.7.46l-3.07.5c-1.24.22-2.76.49-4.76,1,1.1-.29,1.58-.42,1.78-.49s.13-.07.14-.08l.1,0,.48-.11,3.14-.63a27.08,27.08,0,0,0-2.77.5c-1.42.28-2.6.62-1.53.26-8.33,2.1-4.84,1.39-5.56,1.69-2.84.72-4,1-4.85,1.24s-1.59.41-3.56,1c-1,.19,2.74-.91,2.74-1l-7.38,2.24L225.14,108c-1.18.43-2.42.8-3.67,1.33l-3.95,1.59-4.41,1.78-4.93,2.25c3-1.33,2.53-1.07,1.41-.41-3.45,1.61-1.09.32-5.31,2.31,3.88-1.87,0-.13,2.53-1.41L210,114c1.29-.57,2.72-1.27,4.19-1.82,2.93-1.18,5.8-2.37,7.25-3.08,1.61-.6,4.11-1.41,6.92-2.42,1.42-.48,2.89-1.07,4.43-1.52l4.59-1.4,4.33-1.3,3.71-.92a37.38,37.38,0,0,1,3.81-.84,204.15,204.15,0,0,1,27.41-4.55L280,95.8l1.67-.17,1.67-.08,6.69-.34c2.23-.16,4.47-.07,6.73-.1h3.39c1.14,0,2.28,0,3.42.06,4.57.23,9.24.35,14,.91l3.62.35,1.83.19,1.83.27,7.51,1.1a226.75,226.75,0,0,1,32.85,8.23l0,.12c-1.38-.58-3-1-4.67-1.54l-5.29-1.6-1.37-.4-1.39-.35-2.79-.7-5.41-1.39a3.79,3.79,0,0,0-1.44-.23c2.49.56,9.64,2.48,11.28,2.76,2,.71,4.87,1.68,8.35,2.8,1.75.52,3.57,1.29,5.51,2l6,2.24,6.15,2.62c2.06.88,4.13,1.72,6.07,2.71,3.89,1.93,7.65,3.62,10.65,5.39,4.49,2.43-3.1-1.87,1.36.54,4.82,2.65,0,.17,2.42,1.66,1.06.57,2.17,1.06,3.51,1.89s3,1.8,5.25,3.19c-1.77-1.12-2.85-1.84-4-2.62l-1.9-1.24c-.73-.44-1.6-.92-2.67-1.52,1.59.64,8.95,5.27,6.2,3.72,3.87,2.4,5.11,3,6.22,3.69,1,.84,2.39,1.72,4,2.78l2.61,1.72,1.43,1,1.46,1.16c-5.11-4.11,3.85,2.82,4.8,3.3.1,0-.85-.74-2.39-2s-3.67-2.93-6.1-4.55-4.95-3.47-7.3-4.92-4.42-2.66-5.72-3.4-1.85-1.17-2.45-1.56-1.21-.73-2.5-1.44c2.57,1.3,5.23,3,8,4.71,1.39.87,2.84,1.7,4.24,2.63l4.17,2.85,4.12,2.81,3.85,2.9c2.5,1.87,4.86,3.59,6.82,5.24,3.48,3.07,10,8.65,16.43,15.34l2.45,2.52c.82.84,1.65,1.68,2.42,2.58l4.66,5.28c1.57,1.7,2.9,3.53,4.26,5.2s2.65,3.28,3.77,4.81c2,2.77.7.57-.75-1.27,1.18,1.17,5.85,8.17,5.3,6.93l1.35,1.9,1,1.58,1.56,2.45,3.21,5.05c2.05,3.35,3.65,5.87,4.68,7.36.92,1.93-4-6.23-5.65-8.48,1.1,2,4.49,7.48,5.15,8.76-1.06-1.42-4.39-7.49-3.93-6.09-.21-.4-.55-1-.94-1.72s-.9-1.43-1.34-2.13a11.94,11.94,0,0,1-1.39-2.41l-2.79-4.25-3-4.11c-.54-.5,1.4,2.2.6,1.35.83,1.15,1.67,2.26,2.43,3.37l2.13,3.27c1.35,2.11,2.65,4,3.68,5.73,2.05,3.48,3.57,6,4.38,7.07,1,1.78,2,3.83,3,5.67s1.84,3.52,2.28,4.69c2.05,4.31,1,1.81.85,1.2.93,1.94,2.13,4.49,3.48,7.42,1.2,3,2.59,6.36,4,9.91.12.61-.45-.91-.69-1.3,1.6,4.16,1,2.6,2.46,6.81.49,1-1.25-3.76-.76-2.79.45,1.3.92,2.65,1.38,4s1,2.69,1.36,4c.82,2.66,1.59,5.16,2.13,7.18l.29-.08c.76,2.95,1.45,6.32,2,8.86s.7,4.28.57,4c.6,3.14.48,2,.93,4.24.13-.45-1.67-9.71-.66-5.79-.34-1.68-.86-3.68-1.33-5.68s-.92-4-1.38-5.63a44.59,44.59,0,0,1,1.28,4.54c.54,2.14,1.2,4.62,1.68,6.71a18.54,18.54,0,0,0,.47,4.35c.74,3.77,1,4.67,1,4.24-.16-1.4-.82-3.78-1.09-5.69,0-.7.76,3,1.52,7.09-.24-.66.24,2.63-.09,1.5a19.37,19.37,0,0,0,.65,2.85c.07,1.28.42,3.59.66,6.24s.45,5.63.66,8.21c.13,1.07.14,1.4.15,1.31s0-.58-.07-1.14c-.09-1.14-.2-2.57-.05-1.62.1.68.18,1.45.26,2.21s.08,1.52.11,2.15c.06,1.25.1,2,.18,1.43.09,2.08.17,4,.25,5.9s0,3.76.08,5.72c0-.76.05-1.84.07-3.06,0-.61,0-1.26,0-1.91l-.08-2c-.11-2.65-.2-5.16-.17-6.13-.05-.38-.11-1-.16-1.85s-.2-1.75-.31-2.67c-.21-1.85-.42-3.64-.54-4.16a3.36,3.36,0,0,1,0-1.13c0-.15,0-.43-.08-1.13s-.21-1.78-.5-3.52c.39,1.51-.42-3.6-.17-2.91-.25-1.47-.33-1.48-.74-4.32.19.79.08-.49-.12-1.5s-.3-1.78.12,0c.45,2.55.59,3.87.82,5.33s.48,3.06.88,6.21c0,.19-.32-1.75-.36-1.42.15,1.25.26,2.16.59,5.79.21,1.95.23,1.2.32,1.44.09,1.07.19,2.16.29,3.26s.11,2.19.18,3.27c.11,2.15.22,4.21.31,6s.1,3.35.13,4.47.05,1.8.07,1.88c0,2.25,0,2.69,0,3.26,0,.29,0,.61,0,1.2v1.12l-.07,1.71c-.06,1.59,0,1,0,2.9.08-.93.28-3.09.29-5.82.2.2-.22,6.19-.29,8.75,0-1.24,0-1.92-.15-1.47l-.14,3.93c-.05,1-.14,1.79-.19,2.52-.13,1.46-.23,2.7-.44,5.18-.45,4.36,0-1.39-.18,0-.29,3.43-.41,4.28-1.07,8.68.09,0,.63-3.93.6-2.87-.66,4.47-.5,4.33-.38,4.38-.23,1.35-.39,2.16-.55,2.86a218,218,0,0,1-15.62,51.53,241.53,241.53,0,0,1-20.73,36.87c-1.42,1.92-1.82,2.27-1.53,1.84.13-.22.43-.65.82-1.2l1.32-2c-1.16,1.71-2.6,3.6-3.94,5.48s-2.63,3.75-3.73,5.2c1.7-2,5.6-7.56,6.32-8.07-4.76,6.24-10.87,14.3-15.83,19.16l2.06-2.26,1-1.12,1-1.16,3.69-4.49,1.73-2.13c.55-.7,1-1.42,1.54-2.1,1-1.37,1.9-2.65,2.71-3.82-1.56,2-3,3.92-4.53,5.79l-4.75,5.58c-1.59,1.95-3.42,3.84-5.36,5.95l-3.05,3.29c-1.07,1.14-2.27,2.26-3.48,3.48-.22.09.14-.26.89-1s1.94-1.74,3.2-3.18c-.77.8-1.69,1.68-2.64,2.58l-2.83,2.72a36.09,36.09,0,0,1-4.1,3.67c-3,2.78-2.12,2.16-.05.46,1.06-.82,2.31-2,3.52-3.16s2.37-2.26,3.15-3C449.17,456.48,450.09,455.32,449.41,456.35ZM276.62,515.44c-.56-.23,6.11.65,7.2.48-6.16-.55-5.84-.53-11.47-1.13,0,.09-3.9-.51-2.88-.24l1.83.28c.57.09,1,.16,1,.18-1.11-.15-1.66-.21-1.44-.12a11.56,11.56,0,0,0,3.12.3A13.22,13.22,0,0,1,276.62,515.44ZM260.71,106.85a48.46,48.46,0,0,0-5.51,1C254.21,108.15,258.83,107.28,260.71,106.85ZM104.51,244.41c.79-2.61.82-2.62,1.24-4,.37-.74,1.14-2.72,1.63-3.85-.95,2.73-1.46,4.24-2.22,6.58-.75,2.18,0-.14-.16,0-2.07,6.75-.54,2.49-.11,1.41,2.34-7.06,4-11.54,6.15-16.95,1.19-2.33-2.07,5.1-1.41,3.92,2.81-6.28,5.64-13.13,10.06-21.32-.31.42-.76,1.09-1.43,2.22-.33.56-.75,1.23-1.18,2.06l-1.47,3c-1,2.17.24,0-1,2.6a18.78,18.78,0,0,0-1.44,2.4c-.82,2-2,4.89-3.29,7.51-.61,1.32-1.28,2.57-1.75,3.7L107,236.43c.17-.18-1.68,4.64-2.31,6.58C105.08,242.08,104.4,244.42,104.51,244.41Zm-4.59,8.84c.29-1.42,1-3.6,1.62-5.53s1.09-3.59,1.14-3.9c-.42,1.21-1,3.09-1.53,4.91S100.09,252.29,99.92,253.25Zm-3.67,6.36a41.19,41.19,0,0,0-1.12,5.2c-.23,1.4-.36,2.45-.45,3.16l.83-4.13c.27-1.34.53-2.64.86-3.83.61-2.39,1.11-4.45,1.38-5.87C96.35,259.34,95.15,265,96.25,259.61ZM91,293.21c-.08,2.12-.25,5.23-.21,5.67.13-2.41,0,.3.13,0,.11-1.83.21-3.34.29-4.72s.12-2.64.27-3.94c.27-2.58.44-5.36,1-9.7-.36,1.42-.66,5.25-1,8.38S91.12,294.51,91,293.21Zm23.44-90.78c.6-1.14,1.24-2.16,1.86-3.15l1.82-2.91c1.23-1.92,2.34-4,3.88-6.23-1.2,1.69-1.81,2.64-2.52,3.74s-1.51,2.35-3,4.75l-1.34,2.28C114.89,201.55,114.65,202.06,114.48,202.43ZM481.8,413.28c-1.14,1.47-2.9,4.29-4.74,7.36-.88,1.55-1.94,3.06-2.89,4.53l-2.66,4c-.1.3,1-1.3,1-1.11l2.52-3.73c.8-1.18,1.57-2.33,2.26-3.53Zm25.33-71c-.89,4.57-.78,4.44-1.39,7.15.45-1.57.24-.63-.07,1.48,1-5.34.47-2.26,1.45-7.15C506.78,344.73,507.27,342.24,507.13,342.24ZM452,452.74c-1,1-1.64,1.78-2.16,2.32l-1.07,1c-.38.36-.2.16.07-.14.55-.59,1.46-1.56-1,.84-.47.54-1,1.16-2,2.13-1.5,1.32,2.59-2.74-.12-.12.05.07-2.81,2.81-2,2.15l5.35-5.07c.91-.83,1.7-1.68,2.38-2.4s1.24-1.33,1.61-1.74C452.25,452.55,451.84,453,452,452.74Zm23.42-260.68c-.48-.83-1.44-2.41-2.48-4.06s-2.27-3.32-3.09-4.44A35.34,35.34,0,0,0,472,186.8C473,188.34,474.25,190.21,475.39,192.06ZM334.28,98.47c4.4.84,2.75.52,7.12,1.42C342.57,99.93,333.78,98.22,334.28,98.47ZM444,154.18c1.09,1,2.1,2,3.1,3l3,3.11C450.46,160.38,444,153.73,444,154.18Zm10.12,10.38c2.75,3.05,2.45,2.86,4.77,5.47a29.89,29.89,0,0,0-2.75-3.38C455.83,166.43,454.47,164.91,454.09,164.56Zm5.81,6.49c-.32,0,3.7,4.65,5.34,6.87C465.89,178.4,462.33,174,459.9,171.05ZM311.22,96.11a5.59,5.59,0,0,1,1.46-.06c-2.43-.19-4.85-.35-10.14-.57-.59,0,2.14.21,0,.13l-10.14-.14v.18h8.91C304.22,95.71,307.29,95.91,311.22,96.11Zm151,78.68c.14.3,1.18,1.66,2.55,3.4s2.9,4,4.29,5.91c-1.07-1.65,2.33,2.93.15-.1C467.65,181.94,465.56,178.84,462.23,174.79ZM99.35,376.73c1.19,3.34.24.24-.36-1.4.2,1-1.07-2.78-1.47-4.05a6.76,6.76,0,0,1-.55-1.36c.41,1.33.77,2.32,1.06,3.13l.69,2.07c.39,1.22.72,2.31,1.43,4.4C100.61,380.47,99.28,376.79,99.35,376.73ZM331.29,514.14c-2.17.31-5.38.79-7.52,1.13s-3.2.39-1,.22C323.56,515.35,332,514.17,331.29,514.14ZM90,340.45c-.22-1.65-.47-3.2-.76-5l-.47-2.91c-.16-1.06-.25-2.23-.38-3.53h-.13l.32,2.93.43,2.8a10.32,10.32,0,0,0,.22,1.43C88.59,331.23,90.56,345.11,90,340.45Zm19.74-129.09c-2.29,4.87-1.88,3.66-3.83,7.77.13.29-4.18,9.48-4.35,10.68.93-2.33,2.51-6,4-9.56C107.28,216.75,108.92,213.34,109.73,211.36Zm-17.67,139c-.1-.29-.29-1.17-.61-2.81-.25-.88.06.92.49,3.11.19,1.1.48,2.27.74,3.26s.47,1.78.57,2.1C92.56,353.12,92.37,352.23,92.06,350.32Zm6.63,22.07c-.31-.87-.89-2.95-1.45-4.78l-.75-2.42a6.08,6.08,0,0,0-.38-1c.73,2.59,1.51,4.57,1.66,5.5-.33-.88-.86-2.53-1.44-4.48l-.92-3.07c-.3-1.06-.53-2.15-.79-3.18-1-4.11-1.78-7.39-1.56-5.87,1.12,4.12,1.53,6.05,1.84,7.75a62.67,62.67,0,0,0,1.58,6.25,18.85,18.85,0,0,0-.54-2.86c.42,1.4.53,1.64.87,2.76a17.82,17.82,0,0,0,.62,2.81c.11.24,2.26,6.45,2.06,5.38C98.05,371.15,97.07,367.9,98.69,372.39Zm-7.83-29.16c.48,2.23.77,3.73,1.06,5.34s.55,3.33,1.24,5.95c.09.08-.56-2.53-1-5.3S91,343.58,90.86,343.23Zm-1.58-11.41-.13,0c.27,2,.48,3.12.67,4.26,0,.23-.16-.24.09,1.43a6.66,6.66,0,0,1,.34,1.41C89.72,335.4,89.65,334.52,89.28,331.82Zm-.16-2.88c-.08-.3-.19-1.6-.29-2.87a6.23,6.23,0,0,1-.27-1.41c.19,1.89.39,5.33.53,5.73C88.6,325.36,89.55,333,89.12,328.94ZM422.88,138.85c-1.26-.77,3.52,2.75,5.68,4.42A69.3,69.3,0,0,0,422.88,138.85ZM90.21,336a16.84,16.84,0,0,0,.24,2.16c.2,1.3.39,3,.74,4.7a55.13,55.13,0,0,0,1.32,5.87c-.39-1.83-.84-3.95-1.31-6.13S90.49,338.17,90.21,336Zm2.36,11.25c-.52-2.62-1-4.7-1.2-5.61l.74,4.23C92.26,346.34,92.6,347.9,92.57,347.29Zm5,19.42c.72,2.36,1.11,3.66,1.31,4.36s.23.79.19.75-.4-.69.43,1.79C101.08,377.13,98.9,370.46,97.61,366.71ZM88.42,298.8c-.2,2.52-.13,8.44-.07,8.6l.05-5.2C88.4,301,88.46,300,88.42,298.8ZM95,357c.34,1.3.91,4.23,1.68,6.71A43.09,43.09,0,0,0,98,368.1c-.87-2.82-1.42-4.92-1.89-6.64A43.55,43.55,0,0,0,95,357Zm-.34-1.38c-.44-1.74-.85-3.15-1.15-4.48l-.86-3.89c.4,1.86.73,3.89,1.19,5.63s.8,3.26,1,4.16C95,357.36,94.49,355.48,94.62,355.65Zm.33-1.56.91,4.25c.32,1.49.68,3.2,1.38,5.49.39,1-.06-.6-.4-1.86a10.09,10.09,0,0,1-.29-1.22c0-.06.11.37.53,1.63a15,15,0,0,1,.7,2.78,54.34,54.34,0,0,0,1.78,5.45c-.85-2.9-1.68-5.68-2.43-8.24s-1.18-4.94-1.62-6.94c.22,1.42.06.85-.27-.48s-.85-3.41-1.17-5.06a14.68,14.68,0,0,1,.28,2.87c-.46-1.67-.71-3.3-.71-2.78a23.73,23.73,0,0,0,.83,3.46c.16.5.27.76.61,2.09-.09-.09,1,4.05.35,1.38C95.12,355.54,94.31,351.58,95,354.09Zm-4.73-29.58.19,1.81a9.91,9.91,0,0,0,.13,1q-.27-2.83-.56-5.68c-.26-1.2.1,3.87.39,5.7C90.18,325.36,90.3,325.73,90.22,324.51Zm2.62-54-.58,2.8c-.54,3.74-1.25,8.3-1.13,8.47.53-3.74.82-4.92,1.35-8.44a4.78,4.78,0,0,1,.12-1.44,4.7,4.7,0,0,0,.11-.59A5.1,5.1,0,0,0,92.84,270.51Zm15.69-50.18c1.42-2.9,3.61-7.77,1.7-3.93a24.28,24.28,0,0,1-1.33,2.85l-1,1.93c-.36.79-.77,1.75-1.27,3-.14.53.43-.8,1-2.07S108.8,219.62,108.53,220.33ZM97.8,249.74c-.3.58,2.3-7.42,2-6.85-2.56,7.76-3.37,10.73-5.85,22,.29-1.05.58-2.64,1-4.38l1.33-5.37c.42-1.73.78-3.28,1.07-4.3S97.84,249.37,97.8,249.74ZM285.43,513.45v.17l4.25.21C290.91,513.74,287.49,513.58,285.43,513.45ZM92.55,337.13c-1-6.27-.4-2.07-.85-4.19C92.29,336.9,92.42,337,92.55,337.13Zm-.22,0c.62,3.53.26,3.48.86,5.65-.89-5.58.34.87-.17-2.87C92.77,338.84,92.5,337.62,92.33,337.16Zm-.7-5.63a6.27,6.27,0,0,0-.1-1.43c-.12-.43-.44-4.92-.56-4.24l.57,5.68ZM293.94,513.77c1.95-.07,2.2-.19-1.4-.25.25.19-9.66-.35-2.86.13C290.49,513.58,291.9,513.7,293.94,513.77ZM90.35,301.7c-.08-.16.18-4.68.06-4.26a75.94,75.94,0,0,0-.27,8.53C90.28,306.64,90.32,304.2,90.35,301.7Zm1.21-18.43c.08-1.56.45-3.83.72-5.81s.51-3.68.5-4.07c-.53,3.83-.8,5.69-1.07,7.42s-.37,3.35-.73,6.7C91,289.59,91.6,281.17,91.56,283.27Zm4.7-26.57a3,3,0,0,0-.19.6l-.34,1.34c-.25,1-.49,2-.51,2.19.42-1.5,1-3.92,1.57-6.14l.71-3c.2-.87.41-1.52.47-1.86-.36,1.16-.57,2-.72,2.66l-.38,1.5C96.68,254.75,96.55,255.3,96.26,256.7Zm13.21-37.51c1.23-2.41,3.57-7.47,5-10.19-.65,1.26-1.36,2.43-1.89,3.57l-1.5,3.07A37.6,37.6,0,0,0,109.47,219.19ZM288.29,512.71c.8.12-.29.12-1.92.07a49.83,49.83,0,0,1-5.16-.37c1.52.35,4.22.56,5.65.8C288.4,513.12,294,513.1,288.29,512.71ZM108.57,221.91c2.1-4.34,4.86-10.44,6.32-12.71-.34.54-.9,1.5-1.56,2.67s-1.3,2.62-2,4c-1.39,2.89-2.89,5.79-3.5,7.2C107.48,224.26,108.7,221.32,108.57,221.91ZM95.51,351.05c-.81-4.23-.58-3.93-1.13-7a3,3,0,0,1-.16-.6l-.28-1.36c-.22-1-.34-2.05-.41-2.2.14,1.67.64,4,.54,4.22l-.43-2.32c-.12-.72-.2-1.36-.32-1.87.22,1.66.33,2.32.46,3.1s.28,1.72.72,3.91C94.67,347.3,95.17,349.67,95.51,351.05ZM97.2,254c.18-1-.36,1.06-.94,3.36-.29,1.16-.58,2.38-.81,3.3a12.16,12.16,0,0,0-.31,1.6C95.93,258.88,95.86,259.32,97.2,254Zm-6.38,56.22v1.53l.08,1.55.14,3.14c.11,2.1.13,4.21.31,6.22.39,4,.64,7.67,1,10.19-.24-1.67-.5-5.6-.94-10-.21-2.18-.24-4.48-.37-6.67S90.79,312,90.82,310.22ZM94,269.29c.31-1,.43-1.08,0,1.43a59.15,59.15,0,0,0-1,7c1.16-8,1.47-9.28,2-12.59.25-1.85-1.22,5.47-.45,1.36.46-2.43.81-3.95,1.14-5.3s.72-2.55,1.1-4.37L96,259.91l-.39,1.41-.31,1.41C94.89,264.63,94.47,266.62,94,269.29ZM90.77,308.8c.13.58.14-2.52.1-5.1s0-4.65-.17-2C90.81,303.84,90.78,305.17,90.77,308.8Zm.34-2.83c-.07.18-.12,2.49-.14,5.19s.26,5.79.39,7.56C91.27,315.32,91.06,312.05,91.11,306ZM416.29,138.24c.14.23-2.68-1.7-3.6-2.25l.09-.14-3.07-2.07-1.71-1a26.2,26.2,0,0,1-2.34-1.54c-1.45-.81-1.15-.48-4.91-2.79.78.31-.41-.42-3.67-2.15,1.32.86,3.93,2.28,6.63,4l4.16,2.5,2,1.17,1.74,1.13c-2.3-1.4,1.66,1.44,4.6,3.29-.09,0-1.53-1-1.24-.68,1.91.8,15.62,11.82,14.72,11-2.4-2.09-9.2-7.15-5.44-4.5l-4.32-3.28-1.73-1.33Zm13.49,10.29-3.28-2.79-2.95-2.27-4.93-3.79c-3.08-2.16-5.78-4-9.28-6.31,1.17.48-4-2.41-3.59-2.29a2.51,2.51,0,0,1,.55.29l1.2.72c.87.53,1.78,1.08,1.93,1.13-3-1.85-4.3-2.61-5.42-3.26l-1.71-1c-.65-.4-1.44-.9-2.6-1.53l1.36.78,1.62,1,4,2.49c2.94,1.75,6.12,4.06,9.29,6.24C422.2,142.41,428,147,429.78,148.53ZM250.47,105.89a64.21,64.21,0,0,0-6.9,1.57C247.09,106.59,245.05,107.29,250.47,105.89Zm2.75-.65c6.57-1.32,2.06-.37,2.82-.38,7-1.43,5.79-1,8.37-1.28,2.25-.38,4.41-.83,7-1.12-1.25.26-3.36.63-4.16.84,4.16-.58,3.56-.45,9.81-1.08,1.72-.32-4.55.41-2.83.1,1.8-.12,6.89-.61,7-.74l-9.7.82c-2.18.25-2.8.24-.2-.24-3.59.52-6.68,1-8.4,1.15a51.94,51.94,0,0,0,5.58-1c-3.06.48-5,.76-6.74,1.08s-3.36.68-5.82,1.09Zm36.45-4.74c-3.51.18-4.37.3-7.07.36,1.35,0-4.22.49,0,.17,1.71-.22,6.19-.3,4.26-.08,2.76-.16,4.07-.24,5.45-.29l5.85,0c-.34-.11-3.48-.14-6-.16S287.64,100.67,289.67,100.5Zm93.54,18.74c-.32-.06,1.4.78,1.2.77l7.69,3.62C389.54,122.29,387,120.92,383.21,119.24ZM315.1,101.53c.65-.13,3,.37,7,.64a14.55,14.55,0,0,0-2.55-.39l-5.87-.6C314.47,101.31,312.06,101.24,315.1,101.53ZM159.87,153.14c1.5-1.3,1.27-1,2.2-1.76s2.35-2.15,3.2-2.84,1.09-1-.07,0C165,148.77,161.11,151.84,159.87,153.14ZM241,108.62c-2.37.74-4.54,1.36-6.39,1.89a44.33,44.33,0,0,0-4.39,1.51C233.33,110.9,237.94,109.66,241,108.62ZM115.14,210.94c.56-1.29,1.86-3.29,2.66-5,1-1.72.25-.11,1.51-2.4.12-.37,1.58-2.66,2.2-3.61.43-1-3,4.85-2.39,3.5C116.81,207.65,113.45,213.75,115.14,210.94Zm11.72-19.31a31.92,31.92,0,0,0-2.53,3.37l-3.78,6c.68-1,1.63-2.41,2.7-4.07.54-.83,1.09-1.73,1.7-2.62Zm119.61-84.21c3.48-.93,6.29-1.57,8.23-2-2.16.36-3.82.81-4.47.94s-.28,0,1.67-.53l-2.73.68a7.38,7.38,0,0,0-1.38.38C251.86,105.94,244.64,107.76,246.47,107.42ZM292.58,512c-4-.16-3.66-.24-7-.38h-2.3c-.8,0-1.54-.07-2-.07,2.66.3,3.11.17,5.65.32,2,.11,2.37.19,4.23.29C292.34,512.15,293,512.11,292.58,512ZM196.72,127.12c-.29.25,5-2.51,5.12-2.42a82.51,82.51,0,0,1,7.57-3.77,8.94,8.94,0,0,0,2.67-1l3.17-1.44,3.54-1.42,3.74-1.52,1.91-.79,2-.72a6.74,6.74,0,0,0-2,.53l-4.4,1.76c-1.59.64-3.14,1.27-4.22,1.67s-1.66.65-1.34.38c-6,2.91-5.06,2.41-6.46,2.9-.44.26-1.12.58-1.94,1l-2.84,1.41C201.16,124.75,198.73,125.89,196.72,127.12Zm52.74-19.36a11.78,11.78,0,0,1-2.75.59,222.3,222.3,0,0,0-25.42,8.13c-.59.39,2.41-.81,1.42-.24.78-.29,1.63-.66,2.57-1l3-1c2.07-.69,4.25-1.49,6.4-2.16.54-.23.05-.11-.5,0s-1.16.35-.9.2c1.9-.62,2.27-.64,4-1.24,1.6-.39,3.8-1,6.35-1.68l8.48-2c3-.66,6.09-1.18,9-1.77,1.43-.31,2.83-.49,4.14-.69l3.62-.55-5.73.8c-1.55.24-2.8.48-4,.67,4.13-.93,6.64-1.44,5.44-1.46,1.78-.31,6.56-1.06,8.36-1.21,2.33-.4,2.34-.37,0-.3,1.08-.12,2.77-.28,2.81-.33-3.85.37-6.91.92-9.77,1.28-1.43.2-2.81.34-4.17.6l-4.18.83c-.22.11.52.06-1.34.44l-2.77.55c-1.21.1,2.14-.56,2.73-.76a39,39,0,0,0-5.48,1.32c-1.59.26-4,.81-6.2,1.31-1.1.23-2.13.51-3,.74a15.87,15.87,0,0,1-1.86.4l-5.92,1.83c-1.3.46-2.2.77-3.5,1.12l3-1.07c.81-.29,1.3-.43,1-.39-3.92,1.34-5.85,2.1-7.18,2.6s-2,.78-3.37,1.44c4.6-1.66,5.09-1.88,9.28-3.35.09,0,1.74-.5,1.39-.31-3,.87-2.85,1-2.62,1,2-.73,2.68-.93,3.32-1.15s1.28-.44,3.36-1l.05.17-4.07,1.24c-1.33.42-2.62.93-3.94,1.4l-3.93,1.44-2,.75-2,.85c1.8-.77,3.36-1.3,4.72-1.78l3.61-1.27,3.08-1.09,3.19-1a35.83,35.83,0,0,0,4.28-1.13l1.76-.52,2-.5,4.25-1a9.34,9.34,0,0,0,2.8-.34c-1.74.44-1.87.53-4.09,1.06C244.75,108.89,250.18,107.77,249.46,107.76Zm64.22-6c3.31.29,6.52.57,7,.5-3.3-.32-4.14-.47-8.42-.86C311.82,101.49,312.49,101.62,313.68,101.79ZM366,112.87c1,.37,2.6.94,2.63,1-1.93-.63-1.05-.23,2.62,1.09l.07-.21C368,113.53,367.17,113.16,366,112.87ZM130,187c2.2-2.93,2.54-3.42,5.12-6.75A70.34,70.34,0,0,0,130,187ZM92.43,321.47c.19,2.25.35,4,.51,5.93s.29,4,.75,6.71C93.52,333.21,92.67,323.22,92.43,321.47Zm186-219.39c1,0,2.7-.25,4.54-.33l5.32-.21c-.68-.05.9-.14,2.56-.23s3.42,0,3.07-.14c-1.67-.06-3.4,0-5.26.12l-6,.27c1.1,0-.1,0-1.49.2A21.9,21.9,0,0,0,278.45,102.08Zm53.38,2.09c-.55-.23,2.55.38,1.43,0C327.62,103.25,328.79,103.71,331.83,104.17Zm-164.07,43c2.45-2,4.37-3.51,5.29-4.2s.75-.63-1,.54L167.65,147Zm130.41-45.84,2.33,0H302l1.55.08a32.25,32.25,0,0,0,4.5,0c-.83-.07-2.08-.14-3.54-.22l-2.36-.11h-2.55C299.77,101.22,294.82,101.33,298.17,101.34Zm15.45,1.19c2.61.16,4.77.43,6.93.69l1.63.21,1.68.27c1.15.18,2.36.35,3.7.5l-6-1.06c-1.64-.24-2.67-.44-2.32-.55-2.06-.19-3.13-.32-4.21-.45l-1.73-.2c-.66-.08-1.44-.16-2.46-.19-.47.06-7.46-.18-2.84.13-.2,0,.62.05,1.78.18S312.45,102.34,313.62,102.53ZM119,205l-.08,0c-.68,1.25-.83,1.46-1.39,2.46a4.58,4.58,0,0,1-.59,1.28,4.81,4.81,0,0,0-.76,1.2C114.78,212.72,116.82,209.09,119,205Zm48.9-57.62c1.59-1.28,5.7-4.53,5.5-4.4-2.22,1.69-1.49,1-4.48,3.42C169,146.41,168.49,146.89,167.92,147.38Zm-53.46,66.37c-.16.06.94-2.16-.15-.08C111.93,218.54,112.15,218.64,114.46,213.75Zm76.47-82.59c.92-.43,2-1.09,3.44-1.93s3-1.89,5.15-2.88c.53-.35-.5.16-1.77.82s-2.74,1.6-3.2,1.83A38.58,38.58,0,0,1,190.93,131.16Zm272.55,55.23c1.61,2.1,3.74,5,3.49,4.41-1.52-2.17-1.77-2.55-3.24-4.59-.74-.92-1.19-1.44-1-1l1.06,1.48a7.74,7.74,0,0,1,.56.83C462.63,185.11,462.45,185.18,463.48,186.39Zm9.18,14.14a47.34,47.34,0,0,0-2.56-4,19,19,0,0,0-1.28-1.73c-.42-.45,0,.45,1.28,2.4-.3-.34-1.18-1.64-.93-1.09-1-1.49-1-1.64-2.25-3.53,0,.08-.44-.49-.89-1.11,1.26,2,3.34,5.14,5.2,8s3.33,5.47,3.86,6.21c-1.87-3.07-3.29-5.55-4.27-7.26,2.07,3.29,4.83,8.07,2.28,3.53,3.21,5.21,7,12.87,6.22,11-.15-.19-1.06-1.93-2-3.7.65,1-.82-1.8-.46-1.34.59,1.09,3.4,6.28,1.42,2.42-.19-.2-1.56-3-2.75-4.9,1.24,1.79-2.4-4.14-2-3.72l3.75,6c1.22,2.34.31.91,1.84,3.79.44.74,1.44,2.62,2.41,4.45s1.75,3.71,2.09,4.31c-1-2.07-1.7-3.76-2.45-5.16s-1.36-2.61-2-3.8-1.23-2.36-1.94-3.73-1.64-2.86-2.74-4.77c1.73,3.36-2.05-3.16-3.2-4.66.92,1.13-2.33-3.68-3.77-5.92,1.19,2.12.09.41-1.8-2.2,3.34,5.05,2.56,3.65,4,5.76,1,1.47,1.56,2.4,2,3.1S472.37,200,472.66,200.53ZM294,511.45c-5.13-.21-1.74-.28-1.39-.34-4.49-.16-7.09-.18-8.45-.09,3.69.27,4.74.33,8.44.53A8,8,0,0,1,294,511.45Zm-21.06-408c.12,0-.17-.07-.87,0s-1.81.23-3.32.46c.57,0-2.54.47-1.36.42,2.12-.33,3.39-.5,4.53-.66s2.19-.19,3.84-.36l2.74-.52c.54-.09,1.2-.19,2.09-.3l1.53-.19,2-.12c4.49-.19,4.25,0,8.46-.18,2.26-.1,1.2-.27-1.48-.24l-5,.17c-1.94.08-4.07.14-6.17.4C275.84,102.78,278.41,102.83,272.93,103.41ZM150.38,163.62c.25-.37,1.37-1.46.87-1.12-1,1-1.94,2.05-2.91,3.06a5.22,5.22,0,0,1-.86,1.12c1.66-1.76,2.4-2.67,2.87-3.09C149.82,164.17,149.29,164.79,150.38,163.62Zm64.39-44.54c.28-.3,5.75-2.37,5.13-2.27-1.22.45-3.7,1.4-5.23,2.15S212.48,120.08,214.77,119.08Zm271,106.3c-.12-.62,2,4.83,2.24,5.14-.61-1.54-1-2.5-1.42-3.57s-.88-2.28-1.83-4.21A15.09,15.09,0,0,0,485.8,225.38ZM155.44,158.73a26.28,26.28,0,0,1,2.36-2.36c1-.79,2.14-1.76,3.89-3.31a66.48,66.48,0,0,0-6.37,5.55C155,158.91,152.93,161.17,155.44,158.73Zm-33.07,41.74c-.31.3-1.59,2.24-.23-.14-2.74,4.69-1.32,1.88-4.24,7.28.54-.6-2.5,4.91-2.42,5.08,1.6-3,1.53-2.64,3.39-6.14.85-1.9-3,5.51-2.16,3.62,1.19-2.19,1.84-3.29,2.55-4.52.36-.61.7-1.27,1.2-2.08Zm3.77-5.93a11.35,11.35,0,0,0,1-1.73c0-.05-.19.13-.63.72a34.17,34.17,0,0,0-2.14,3.19c-.74,1.38-.75,1.64-1.2,2.56,1.4-2.24,1.54-2.69,2.92-4.78Zm36.73-42.23c2.61-2.5,5-4.12,6.46-5.43-3.24,2.54,1.36-1.23-.14-.17-1.64,1.34-3,2.45-4.07,3.39S163.35,151.8,162.87,152.31Zm51.93-33.15c-.37.24,2.74-1,5.23-2C221,116.61,216.55,118.3,214.8,119.16Zm-85.13,71c1.42-2.23,0-.19-.18-.13-1.54,2.36-2.32,3.5-3.21,4.79s-1.78,2.8-3.65,5.81c-.15.16,0-.28-.84,1.11-.11.3-.76,1.37-1.38,2.45l-.12-.06c-1.32,2.39-1.27,2.47-1.93,3.73.28-.7-.39.47-1.32,2.15l-1.47,2.73c-.49.93-.88,1.85-1.21,2.54a28,28,0,0,1,1.47-2.84c.22-.37.19-.25,0,.1-.34.67-1,2.35-1.22,2.87l1-2,1-1.76,1.59-3c.94-1.76,1.64-3.15,2.27-4.46C124.08,198.41,125.46,196,129.67,190.16Zm148.92-86.6a53.78,53.78,0,0,0-7,.81c-.66,0-2.14.22-4.27.48s-4.95.6-8.21,1.28l0,.21c1.33-.25,2.56-.5,3.71-.7l3.24-.43,5.34-.67c3.17-.32,5.72-.39,8.55-.59-.7-.08-.07-.24,1.28-.44s3.46-.28,5.67-.42c-.32-.13-3.66,0-4.23-.14-4.6.41-7.08.63-9.27.77s-4.08.42-7.48.87c-1.21.3,1.37,0,4.52-.4,1.58-.23,3.31-.35,4.79-.45S278,103.56,278.59,103.56ZM111.52,221.7c1.21-2.49,1.16-2.55,1.75-3.84a4.59,4.59,0,0,0,.69-1.23c1.05-2.37-.28.26-1.38,2.46C112.65,219.14,111,222.56,111.52,221.7Zm26.4-42.86c.63-.92,4.32-5,4.45-5.42-1.32,1.57-2,2.38-2.74,3.19l-1.15,1.31c-.44.49-.94,1.1-1.55,1.92C137.14,179.69,136.76,180.33,137.92,178.84Zm211.55,325c3.68-.87-2.32.7-5.4,1.43-.37.19.35.08,2.74-.5,0-.2,4.62-1.17,8.7-2.48l5.22-1.55c1.22-.39,1.69-.62.86-.38-2.43.84-4.73,1.47-6.78,2.06l-2.88.8ZM102.55,245.27c.84-3.11.78-2.16.17,0l1-3,1.09-2.91a18.1,18.1,0,0,0,1.09-3.34,41.54,41.54,0,0,1-2.07,5.22c.26-.74.51-1.51,0,0C103.57,241.74,101.37,248.83,102.55,245.27ZM252.32,107.69c1.82-.44,3.65-.74,5.48-1.12a14,14,0,0,0-2.38.29l-2.09.37c-.78.15-1.6.37-2.47.57-3.48.86-7.65,1.8-10.82,2.78-1.57.54-5.57,1.72-5.32,1.78,2.16-.58,3.56-1,5.06-1.5s3.09-1.08,5.7-1.66l0,.13C251,108,255,106.79,252.32,107.69ZM315,509.78c4.23-.46,5.07-.43,8.34-.8.85-.21-.26,0-1.39.07s-2.26.21-1.41.05,1.79-.13,2.76-.27l2.82-.4a11,11,0,0,0,2.74-.53c-2,.26-7.15,1.13-6.92.93s-.26-.07,1.34-.29l7.79-1.18c1.32-.17,2.62-.47,3.91-.74l3.82-.81c1.26-.28,2.5-.51,3.69-.81l3.45-.92c2.22-.6,4.27-1.11,6-1.61l-9.2,2.36c-2.85.66-5.53,1.16-8.05,1.71s-4.94.87-7.28,1.27-4.63.79-6.94,1c.12-.07,3.54-.41,2.75-.43-9,.9-1.11.3-6.91.93-11.38,1,11.48-1.5,2.71-.85,1.62-.18,3.12-.29,4.32-.49s2.12-.37,2.59-.48c-3.91.67-6.55.85-8.77,1.16s-4.08.56-6.47.66l2.23-.09c.55,0,.82,0,.57,0-1.91.15-3.06.15-4.18.19-2.53.3-8.41.89-5.56.94,2.86-.35,1.21,0,5.6-.24-1.22-.09,2.14-.21,4.18-.41,1.36,0-4.16.43,0,.18a54.79,54.79,0,0,1,5.55-.77C317.93,509.32,314.93,509.66,315,509.78ZM108.13,230.9c.8-2,1.8-4.44,2.83-7s2.33-5,3.39-7.12a99.86,99.86,0,0,0-4.8,10.13C110.27,225.65,107.58,231.82,108.13,230.9ZM484.45,389c.07-.33.82-2.16,1-2.63l-1.09,2.58-.54,1.29-.6,1.26c.11-.06,0,.34-.45,1.34.94-1.81,3-6.61,2.8-6.41ZM338.5,506.14c.1-.15-2.29.36,0-.18-2.16.42-2.93.61-3.8.81a37.68,37.68,0,0,1-4.44.79c.59.07,3.75-.49,1.42,0C336.8,506.7,333.8,507,338.5,506.14ZM372,496.19c-.55.14,1.88-.89-.05-.13-.92.53-3.89,1.51-1.33.5-5.57,2-10,3.69-14.71,5.05l-3.56,1.1c-1.21.39-2.48.66-3.79,1l-4.11,1-2.22.55-2.36.47c-.86.26.09.1,1.47-.16s3.16-.74,4-.9l6.6-1.83,6.61-2.05c2.24-.63,4.43-1.44,6.67-2.22l3.37-1.17,1.7-.59Zm5.2-2c1.72-.54,6-2.66,7.72-3.35C387.43,489.41,377.94,494,377.19,494.17ZM469.5,197.55l1,1.48c.31.46.52.83.56.84-1.22-1.94-2.35-3.62-3.34-5.17s-1.85-3-2.75-4.2c-1.78-2.49-3.32-4.6-5-6.73,3.52,4.8,5.88,8.39,3,4.72,1.26,1.78,2.39,3.34,3.27,4.72s1.66,2.45,2.23,3.26C469.6,198.07,470,198.52,469.5,197.55Zm-343.74.06c.45-.82.69-1.36.95-1.88s.55-1,1-1.82c-1.22,1.78-1.58,2.34-1.95,2.9s-.75,1.11-1.86,2.95C127.21,194.72,122.73,202.27,125.76,197.61Zm346.51,4.78c1.35,2.31,2.3,3.9,3,5s1.05,1.77,1.34,2.17c-.87-1.7-1.45-2.68-2-3.67C475,206.87,471.66,201,472.27,202.39ZM104.12,242.83c-.35,1.39,1.52-4.09,2.44-6.55C106.47,236,105.21,239.6,104.12,242.83ZM269,105.48l3.33-.47c1.15-.13,2.32-.21,3.38-.31,2.13-.19,3.87-.36,4.37-.49-1.62.15-1.52.08-1.4,0-4.44.49-5.29.44-7,.63S267.75,105.52,269,105.48Zm198.16,90.28a6,6,0,0,1-.73-1.19c2.12,3.32,2.05,3,3.83,5.81.3.61.67,1.33,1.29,2.46.2.13,2.41,4.06,2.82,4.79.79,1,1.62,2.82,4,7.34a12.67,12.67,0,0,1,1.54,2.6c.77,1.56,1.74,3.62,2.67,5.62.46,1,.94,2,1.31,2.9s.69,1.75,1,2.42c.52,1.35.78,2.07.55,1.6.63,1.48,1.27,3,1.77,4.14s.83,2.06,1,2.26c-.64-2-1.55-3.91-2.21-5.54a36.87,36.87,0,0,1-1.36-3.55c1.95,4.71,2.42,4.62.32-.13,1.24,3.13,0,.64-.76-1.18-.6-1.63-1.23-3-2.05-4.91s-1.85-4.31-3.71-7.82a32.83,32.83,0,0,0,1.44,3c.67,1.41,1.2,2.69.85,2.12a26.49,26.49,0,0,0-1.28-2.57,7.33,7.33,0,0,0,.47,1.05c.51,1.23,1.17,2.76,0,.35-1.76-3.42-.45-1.23-1.77-3.8-.42-.37-2.27-3.89-3.59-6a53.16,53.16,0,0,0-3.26-6.14c.64.9,3.37,5.62,3.68,5.91-2.24-3.72-2.29-3.81-2-3.66-.84-1.46-1.25-2.1-1.68-2.81l-.74-1.22-1.24-1.91c.67,1.34-2-2.84-1.76-2.19s1.75,3,2,3.65C465.91,193.53,464.75,192.31,467.13,195.76Zm28.8,67.46c1.66,8.18.39.92.3-.07-.82-3.27-1.52-5.54-2.51-9.42,1,4.45,1.54,6,2.43,9.44C496.58,265.75,496.07,263.35,495.93,263.22ZM398.1,482.94c1-.48,0,.12-1.24.82s-2.63,1.38-2.36,1.31c2-1,3.66-2,5.18-2.87l4.12-2.4c1.26-.7,2.32-1.43,3.35-2.09l2.94-1.86a37.74,37.74,0,0,0-4.26,2.57C403.63,479.82,400.77,481.42,398.1,482.94ZM499.46,331.05a64.07,64.07,0,0,0-1.14,6.88c.63-4.18-.52,4.88.22,0C498.62,336.39,499.34,332.62,499.46,331.05ZM430.81,459.44a7.58,7.58,0,0,1-.87.84c-.64.6-1.55,1.45-2.63,2.31l-6,5c.6-.64,4.48-3.72,4.18-3.68-2,1.54-3.51,2.8-5.06,4s-3.11,2.24-4.91,3.59c-.12.24,1.63-.92,4-2.52,1.2-.78,2.48-1.75,3.75-2.73l3.66-2.77c-.14,0,1.61-1.26,3.19-2.71s3.23-2.83,3.1-2.8a51.16,51.16,0,0,1-4.3,3.56l7.25-6.36c1.95-1.9,3.6-3.49,5.11-4.89a34.38,34.38,0,0,0-3.42,3.1c-1.72,1.74-3.82,3.54-4.75,4.46C434.08,456.74,433.84,456.62,430.81,459.44Zm-70.92,40.21c1.77-.48,4.87-1.64,6.6-2.18,3.22-1.19-1.49.35,1.26-.63l2.31-.78,1.81-.71c.84-.33.76-.28-1.46.67l7.19-3,1.46-.61,1.38-.65,2.76-1.3c-4.43,1.81,4.91-2.35,4.94-2.56l-8.25,3.84c-3,1.34-6.2,2.57-9,3.77-5.7,2.16-10.12,3.72-9.67,3.68l-.56.17A5.13,5.13,0,0,0,359.89,499.65ZM384.52,490c1.47-.64,3.42-1.47,6.26-3,3.41-2-1.73.72,3.57-2.16-1.5.7-4,2-6,3.12A33.91,33.91,0,0,0,384.52,490ZM134.07,186.44c2.68-3.49,1.8-2.6,5-6.7-1.8,2.19,1.59-2.43-1.85,2.07C137.82,181.3,134,186.26,134.07,186.44Zm354.35,51.45c.64,1.79,1,2.87,1.35,3.94,0-.46.24.17.67,1.23A36.12,36.12,0,0,0,488.42,237.89ZM454.27,435.74c-1.45,1.75-2.85,3.35-4.22,4.89s-2.85,2.88-4.25,4.32c-.07.16-1.4,1.6-2.63,2.93s-2.46,2.44-2.08,2.19c1.19-1.15,2.24-2.17,3.12-3.15l2.46-2.6,2.11-2.2c.68-.69,1.32-1.36,1.94-2.1L448,443.19c-2.65,2.9-2.5,2.59-4.78,5.07,1-.9,3.58-3.68,6.05-6.39S453.82,436.33,454.27,435.74ZM112.41,223.63c2.13-4,6.7-14.25,3.37-7.65C115.94,216.06,113.07,221.93,112.41,223.63ZM462.85,424.8l-.15-.11c-1.17,1.7-2.89,3.88-4.34,5.83l-1.95,2.62c-.56.72-1,1.26-1.21,1.56,1.09-1.28.59-.62.07.05l1.09-1.29,1.08-1.41,2.15-2.84C461,427.38,462.23,425.78,462.85,424.8Zm37.84-121.56c0-1.39-.05-2.78-.13-4.17s-.15-2.78-.22-4.16a20.22,20.22,0,0,0,0,2.77,11.68,11.68,0,0,0-.24-2.76c.14,2.09.26,4.1.36,5.62S500.59,303.09,500.69,303.24ZM478,399.82,475,405.28l-1.5,2.72-1.65,2.69-3.43,5.65c-1.23,1.94-2.61,3.93-4,6.1,1.67-2.29,1.52-2.26,3.1-4.62a4.91,4.91,0,0,1-.68,1.23l1.35-2c.27-.45.41-.72.53-.95.23-.44.34-.69,1-1.84a13.31,13.31,0,0,0,1.57-2.31c.41-.93,2.07-3.39,3.45-6S477.58,400.76,478,399.82Zm-68.12,75.73c.14-.14,1.43-1,2.62-1.76a10.56,10.56,0,0,0,1.93-1.46c-1.37,1-.71.46-.05-.07-1.53,1.15-2.52,1.71-3.47,2.32C410.76,474.76,407.13,477.31,409.89,475.55ZM404,479.2a39.76,39.76,0,0,0,5.94-3.61C407.25,477.27,407.3,477.15,404,479.2Zm-8.37,5c1.5-.77.78-.35,0,.08,2.52-1.4,7.94-4.55,8.42-4.92-1.42.82-1.35.7-1.27.59-1.64,1-2.65,1.52-3.63,2.07-.55.38-1.23.83-2.33,1.52a3.29,3.29,0,0,0-.54.27A6.48,6.48,0,0,0,395.61,484.19ZM482.1,391c.48-1,.74-1.45.68-1.22,1.07-2.83,4.51-10.46,5.14-12.93-1,2.77-1.42,3.86-1.52,4s.26-.65.6-1.71c.72-2.11,1.79-5.22,1.23-3.66-.67,1.78-1.17,3.2-1.57,4.37l-1.12,2.87a47.6,47.6,0,0,1-1.88,4.4C484.09,386.58,482.28,390.59,482.1,391Zm-362-182.17a6,6,0,0,1-.7,1.2c1.2-2.19,1.51-2.87,1.21-2.49l-2.66,4.88A23.33,23.33,0,0,0,120.09,208.81ZM492.8,252.54c.86,3,.9,4.35,1.67,6.72-.37-1.54-.7-3.16-1.09-4.93a57.63,57.63,0,0,0-1.71-5.82C492.8,252.17,493.72,255.38,492.8,252.54Zm-13.34-35c-1-1.89,2.93,6.57,2.89,6.32C481.35,221.59,480.76,220.09,479.46,217.52ZM494.64,354.2c-.37,1.1-1.36,5.06-1.56,5.33,1.06-4.1,1.19-4.92,2-8.09-.06-.21-.14-.29-.89,2.64.71-2-2.38,9.29-1.25,5.4.59-2.41.82-3.13.79-2.65-.77,3.46-1.95,7-2.87,10.15s-1.83,5.7-2.27,7.14c.56-1.57,1.18-3,1.7-4.73s1.08-3.55,1.78-5.83c0,.34-.6,2.21-.69,2.7.73-2.32,1.93-6.66,2.32-8-.19.75-.35,1.54,0,0a2.73,2.73,0,0,1,.11-.6c.09-.36.2-.84.32-1.32C494.39,355.37,494.63,354.36,494.64,354.2ZM470.48,201.85c-.27-.47-.63-1.11-1.05-1.83s-.94-1.5-1.44-2.29c-1-1.58-2-3.16-2.71-4.07l2.89,4.55c.48.75,1,1.48,1.44,2.24l1.36,2.31,2.82,4.75c.5.81,1,1.66,1.41,2.53s.94,1.77,1.42,2.69c-.34-.92-2.06-4.2.19-.1-.9-1.69-1.65-3.3-2.44-4.71s-1.57-2.67-2.32-3.76A46,46,0,0,1,474.8,209c-1.55-2.5-2.35-3.87-3.1-5.31l-1.24-2.33c-.24-.43-.49-.92-.81-1.44l-1.11-1.74a11.27,11.27,0,0,0,1.21,2.11C470.37,201.41,470.94,202.44,470.48,201.85Zm22.86,53.41c-.63-2.53-.71-2.76-.74-3.1a24,24,0,0,0-1-3.62c-.16-.26.11.94.51,2.44.2.75.43,1.57.67,2.33S493.16,254.77,493.34,255.26Zm3.58,88.07c-.08-.24-.86,3.83-1.24,5.41-.05.54-.25,1.65.13,0-.39,1.88-.63,3.05-.72,3.5s0,.2.19-.78C496.31,346.8,496.35,345.74,496.92,343.33ZM500,317.14c0-.22-.14.22-.07-1.4a6.2,6.2,0,0,0,.11-1.39c-.08-.94-.22,2.87-.32,4.16.07-.6.06.54,0,1.78a13.58,13.58,0,0,1-.2,2.38c0-.37,0-.94.07-1.65s0-1.55.05-2.46c.05-1.82.14-3.88.27-5.59-.19.66-.45,8.73-.46,4.14,0,.92-.06,1.82-.1,2.7s-.06,1.73-.14,2.54c-.13,1.63-.25,3.12-.35,4.43,1-11.2.44-2.06.31,0,.28-2.84.42-4.14.53-5.28S499.82,319.39,500,317.14Zm-10-72.47c.3,1,.43,1.56.32,1.36.47,1.5,1,3.19,1.49,4.82.25.81.49,1.61.72,2.37s.36,1.48.5,2.12l-.38-1.84c-.2-.74-.43-1.59-.66-2.47-.48-1.75-1-3.64-1.5-5.05C491.19,248.35,490.28,245.41,490,244.67Zm6.2,24.17c.28,1.59.71,3.65,1.15,6.83a5.19,5.19,0,0,1,.34,1.36c-.3-2-.53-3.72-.8-5.12S496.37,269.46,496.21,268.84ZM349,501.89c-1.17.13,2.1-.64,2.64-.9l-7.17,1.84c-1,.26-2,.55-3,.78l-3.25.68c4-.76-2.06.48-1.34.4,2.19-.39,3.92-.69,5.74-1.15S346.29,502.53,349,501.89Zm96.31-57.45,3.37-3.67c1.1-1.21,2.08-2.47,3.07-3.64,1.94-2.38,3.78-4.5,5.13-6.45-.71.93-1.15,1.5-1.48,1.9l-.82.88c-.5.53-1.11,1.2-3.06,3.56-.78,1.06,2.78-3.08.13.11-.52.6-1.28,1.45-2.18,2.47s-2,2.14-3.17,3.36l-3.53,3.75c-1.17,1.26-2.41,2.4-3.45,3.49,1.3-1.27,1.35-1.15.09.09A190.36,190.36,0,0,1,418.63,468L413,472.09c-1.88,1.3-3.78,2.48-5.58,3.67s-3.51,2.32-5.21,3.28l-4.69,2.79,6.37-3.68c2-1.27,4-2.59,6-3.84,1-.64,1.95-1.24,2.89-1.89l2.73-2c1.8-1.31,3.58-2.55,5.26-3.83,6.64-5.2,12.31-10.08,16.73-14.33.17-.16-.85.95-.92,1,3.08-2.95,1.1-1.28,4.9-4.89-2.17,2.18-1.88,1.94-.81.92.54-.51,1.28-1.2,2-1.9l1.82-1.89c-.72.76-1.44,1.59-2.2,2.37l-2.27,2.23-3.32,3.26c-1.3,1.29-.3.33,6-5.76,1.21-1.3,1.35-1.38,2.87-3C447.11,442.73,448.12,441.44,445.26,444.44ZM498.15,330.9c.39-4.29.58-4.92.44-2.75.33-3.5.67-7.08.53-6.9C498.8,324.79,498.21,329.06,498.15,330.9Zm.75-9.67c.28-5.15.5-9.78.27-9.66-.25,6.22-.37,6.38-.26,2.74,0,.92-.07,2.3-.15,3.86s-.15,3.29-.34,4.92a57,57,0,0,0-.49,6.38c.36-3.6.73-7,.89-8.81S499,318.57,498.9,321.23Zm-.83,8.26c-.05-.07-.25,1.65-.59,3.54s-.61,4-.67,4.66c.52-3.52.45-1.94,1-5.44C497.78,331.94,497.93,331.1,498.07,329.49ZM111,399.87c.26.3-.34-.83-.74-1.85s-.76-1.86-.21-.88c-.44-1-4.32-9.2-3.41-7.86.68,1.52,1.08,2.31,1.24,2.57.37.92,1,2.4,1.82,4.12l1.24,2.72c.47.91,1,1.84,1.42,2.75,1.88,3.63,3.53,6.89,3.58,7.15,1.78,2.85.86,1.22,3.78,6.07.89,1.72,1.47,2.64,1.74,3.19s.3.67.25.7-.46-.31.48,1.32c-.9-1.39-1.39-2.12-1.6-2.37-1.56-2.55-2.14-3.67-2.94-4.93l-1.4-2.27c-.57-.95-1.36-2.14-2.26-3.89.3.34,1.2,1.92.94,1.12-1.31-2.12-3.34-6.15-1.26-2.57.82,1.88,3.62,6.51,3.35,6.32.6,1,1.22,2,2.21,3.68-1.28-2.35,0-.19.19-.11l-2.29-3.64c-1.44-2.52-2.85-5.11-1.26-2.58-1.81-3.24-2.44-4.53-2.16-3.69-2.31-4.48-.64-1.55.2-.11-1-2-.88-2-2.55-5.13C109.92,397,113.09,403.6,111,399.87ZM94.13,341.2c.58,2.85,1.77,9.13,2,9.72.83,3.4-.06.43-.17,0,.74,2.89,1.13,4,2.17,8.21-.83-3-.13.23.31,1.39.62,2.12.34,1.26.07.48-.14-.39-.24-.77-.25-.75s0,.13.08.39.19.66.36,1.26c-.5-1.5-.91-3.41-1.44-5.41s-1.08-4.14-1.5-6.19C94.94,346.23,94.26,342.57,94.13,341.2Zm416.61-29.37c0,1.72,0,1.26,0,.06s-.08-3.17-.08-4.44c0,0,0,.46,0,1v1.87a44.78,44.78,0,0,1,0-5.84C510.62,309,510.79,307.33,510.74,311.83ZM493.9,225c0,.25-.23-.24-.68-1.19l-.8-1.72L491.33,220c-.77-1.55-1.64-3.27-2.46-4.9l-1.18-2.34-1.1-1.94a9.06,9.06,0,0,1,1,1.55c.58,1,1.27,2.43,2.06,4s1.63,3.22,2.4,4.76S493.41,224,493.9,225ZM136.52,168.39l2-2.34,1.84-2c1.26-1.35,2.71-2.88,5.08-5.26-3.3,3.48-3.77,4-4.29,4.6L140,164.7l-1.31,1.4-2,2.38c.16-.25.9-1.15.87-1.18C137.63,167.08,137.09,167.71,136.52,168.39Zm-22.64,32c.07-.37,1.35-2.12,3-5-.4,1,1.45-2,1-1-.51.54-4.78,7.44-3.18,4.87C116.56,196.35,115.07,198.4,113.88,200.43ZM267.76,96.88c1.5-.21,3.28-.56,5.26-.71l6.29-.65C280.27,95.59,269.15,96.55,267.76,96.88ZM435.6,146.09c.84.69,1.77,1.42,2.71,2.24L441.2,151l3.08,2.84c.52.48,1.07,1,1.58,1.47l1.52,1.55c2,2.09,4.07,4.16,5.91,6.18s3.46,4,4.89,5.71c-2.14-2.42-4-4.56-5.71-6.47s-3.46-3.58-5.12-5.29-3.41-3.34-5.3-5.11S438.13,148.12,435.6,146.09Zm-218-35c.48-.25,3-1.38,5.88-2.42l7.7-2.65C228.79,106.93,222.08,109,217.57,111.08Zm-126.74,238c-1-4.67-.13-.3-.21,0l-.8-4.56c-.14-.78-.29-1.54-.43-2.22s-.23-1.29-.35-1.77c-1.43-9.88-3-24.46-2.59-37.54.06.29.08,2.36.1,4.59a51.7,51.7,0,0,0,.22,5.53A42.37,42.37,0,0,1,86.9,319l.19,2.92.3,3.12c.2,2.14.4,4.38.61,6.64s.61,4.53.94,6.75c.17,1.11.34,2.2.51,3.28s.44,2.1.66,3.11C88.89,339.7,90.11,345.12,90.83,349.12Zm25.27,64.37c.7,1.25,1.84,3.41,2.88,5-1.27-1.76-4.89-8.3-4.3-7.54.85,1.45,1.31,2.21,1.49,2.45C117.23,415.27,116.08,413.35,116.1,413.49ZM104.89,220.27c.7-1.51.36-.72,0,0,.29-.56.87-1.64,1.94-3.9.15-.17,0,.3-.46,1.24s-1.14,2.32-1.84,4.07a8.26,8.26,0,0,1,.37-1c.21-.54.52-1.18.76-1.69C105,220.14,103.78,223.2,104.89,220.27Zm1.94-3.9c1-2.27-1.07,1.85,1.72-4,.18-.24.73-1.29,1.32-2.39a26.09,26.09,0,0,0,1.42-2.71c.76-1.39.55-.84,1.46-2.51-.41.95-1.15,2.28-2.2,4.14-.26.47-.55,1-.84,1.5l-.86,1.75Q107.94,214,106.83,216.37Zm126,290.23a26.08,26.08,0,0,1-2.92-1,10.57,10.57,0,0,1-1-.44,18.1,18.1,0,0,0-2.83-1.15C228.36,504.69,231.75,506.25,232.84,506.6ZM144.4,449.9c2.17,2.24-1.27-1,2,2.13.62.7,1.48,2-3.23-2.9.51.55,1.6,1.54,1.87,1.78s.09,0-.32-.4-1.18-1.2-2.38-2.58C142.25,447.69,143.89,449.55,144.4,449.9Zm-9.63-10.71c.52.35-3.19-4.21-4.29-5.8,1.23,1.53,3.12,3.88,5,6.25l1.36,1.76c.46.58.94,1.11,1.37,1.63l2.28,2.68c1.21,1.35,1,1,.07-.06,2.32,2.6,2,2.27.46.67S136.8,441.88,134.77,439.19Zm-23.11-34.8a26.67,26.67,0,0,1-1.69-4c2,3.81,1.1,2.3,1.18,2.62l3.1,5.74,4,6.83c-.6-.93-.87-1.28-.88-1.14-1.24-2.11-2-3.47-2.62-4.57l-.82-1.51c-.23-.49-.47-1-.73-1.51A14.31,14.31,0,0,0,111.66,404.39ZM244.22,508.81c1.54.45,1.46.53.33.33-.57-.09-1.4-.26-2.43-.49s-2.23-.63-3.56-1c.47,0,5.21,1.31,1.49,0S243.59,508.92,244.22,508.81Zm14,3.29c.83.19,2.08.45,3.55.74s3.2.5,4.95.77a6.46,6.46,0,0,1-1.41-.34c1.33.24,5.26.79,4.25.76l-6.81-.93A38.82,38.82,0,0,1,258.2,512.1Zm-134-88.36c-.94-1.49-.32-.6.54.65.42.64,1,1.32,1.38,1.86l.52.67a1.89,1.89,0,0,0,.22.25c.63,1,1.61,2.38,2.69,3.83l1.64,2.21,1.67,2c-1.71-2-.23,0,2.59,3.44.08.27-2.1-2.44-2.83-3.25-.76-1-1.29-1.65-1.68-2.17L130,432l-2.58-3.45c1.33,1.71.93,1.07,0-.27S124.94,424.88,124.17,423.74Zm-19.83-39.68c.45,1.05.92,2.14,1.66,3.95-.8-1.38.4,1.82,1.5,4a10.5,10.5,0,0,1-1.18-2.36c-.6-1.52-1.39-3.55-2.23-5.51,1.36,3.07.89,1.73.11-.39-.39-1.06-.86-2.32-1.22-3.32a9.63,9.63,0,0,1-.49-1.8l.58,1.55.48,1.16.66,1.68,1.38,3.61c-.14-.2-1-2.4-1.67-3.95A5.6,5.6,0,0,1,104.34,384.06Zm46.24,69.85c1.36,1.56,3.28,3.28,5.14,5s3.7,3.52,5.26,4.79c-1.49-1.13-3.56-3.11-5.59-5l-2.83-2.69A28.72,28.72,0,0,1,150.58,453.91Zm-12.45-13.76c-3.37-4.17-1.87-1.83-6.46-7.66a48.8,48.8,0,0,0,3.84,4.25c.2.19-.32-.46-.86-1.14A50.68,50.68,0,0,1,138.13,440.15Zm2.21,1.86c-1.44-1.64-3-3.59.06-.06-.16-.3-1.59-1.88-3.59-4.42-1.33-1.64.31.46-.1.08-.77-1-2-2.54-3.54-4.49.4.39,1.25,1.38,2.49,2.87l2.13,2.62c.4.49.82,1,1.27,1.56l1.47,1.67C141.29,442.88,141.28,442.89,140.34,442ZM121,415.61c-1.95-3.48-1-1.92.85.87s4.49,6.83,5.57,8.53c2.5,3.1,1.75,2-.46-1.09-2-3.2-5.61-8.34-8.4-13.5l2.06,3.36,1.12,1.82,1.36,2a5.62,5.62,0,0,0-.89-1.12c1.55,2.36,3.39,5.23,5.15,7.81s3.51,4.85,4.49,6.26c-2.47-3.18-1.22-1.24-.15.44a15,15,0,0,1,1,1.64,17.42,17.42,0,0,1-2.27-2.77c-1.23-1.83-2.27-3.3-3.51-5s-2.53-3.84-4.47-6.81c1.53,2.19.18.07.18-.12a85.1,85.1,0,0,0,4.69,7.14c-.85-.94,2.72,3.85,2.37,3.56.92,1.25.64.73,1.75,2.26l-4.45-6.31c-1.55-2.33-3-4.74-4.28-6.7C121.26,415.82,120.83,415.21,121,415.61Zm-6.38-11.13c-3.81-7.07-5.07-10.19-6.89-14.1-.07-.6,5,10.87,3.13,6.4.33.53,2,4,1.18,2.6,1.13,2.17,1.79,3.24,2,3.78,1.51,2.85.11-.29,2.18,3.69C116.27,407.1,115.84,406.6,114.58,404.48ZM102,374.29a39.66,39.66,0,0,0,1.74,5.43c-.6-1.53-.69-1.47-.72-1.25a16.26,16.26,0,0,1-.75-2.77c-.77-2.11-1.5-4.1-2-5.59a15.25,15.25,0,0,0-.81-2.46c-.54-2.06.11-.06.87,2.29s1.86,5,1.73,4.32C102.64,376,102.45,375.64,102,374.29ZM247.48,507.6c-2.49-.52-5.39-1.51-4.06-1.34a17.38,17.38,0,0,0-2.76-.71,9,9,0,0,1-2.64-1.08c1.09.34,1.34.46,2.7.87l0-.12,1.84.62,1.17.37a6.45,6.45,0,0,1,1.06.43A11.76,11.76,0,0,0,247.48,507.6ZM105.81,385c.54,1.16,1.21,3,2.24,5.23-.28-.83-2.31-5.46-2-5.31.9,2.15,1.34,3.45,1.95,4.84s1.31,2.92,2.58,5.6l-.16.07c-.5-1.14-1.83-4-2.84-6.14s-1.52-3.54-.81-1.58c-1.57-3.92-.62-2.18-2.46-6.69A32.66,32.66,0,0,1,105.81,385Zm7.08,15.52c-3.32-6.25,1.86,3-.42-1.36C114.79,403.23,112.83,400.42,112.89,400.51ZM265.66,510.93a6,6,0,0,1,1.42.16c3.1.38.29-.3,2.86,0,4.24.74,1.06.43,2.77.81C270,511.5,269.16,511.45,265.66,510.93ZM121,413.91c.24.28.72,1.1,1.26,1.84a17.16,17.16,0,0,0,1.23,1.63c1.68,2.62,1.47,2.41.63,1.22S121.74,415.26,121,413.91Zm11.28,16.34c-.75-1.14.23.19,1.52,1.77s2.91,3.44,3.13,3.6c1.18,1.64,2.68,3.45,4.42,5.53a19.7,19.7,0,0,1-1.67-1.73c-.77-.95-1.74-2.15-2.72-3.38C135,433.58,132.92,431,132.26,430.25Zm-11.85-17.64c-1.81-3.11-2.86-4.95-3.38-5.89s-.47-1-.19-.51C117.42,407.2,119.26,410.29,120.41,412.61Zm66.88,68.19c2.09,1.18,3.09,1.69,7.36,4.27-.71-.35-1-.55-.89-.43a18.2,18.2,0,0,0,2.06,1.21,43.12,43.12,0,0,1-3.84-2.24C190.8,482.87,189.48,482.06,187.29,480.8ZM102.55,374.08c-.31-1.09-.57-2-1-3.17s-.85-2.66-1.58-4.92c.71,2.09-.33-1.8-.53-2.81,1.19,3.71,2,7.06,3.25,10.61l1.9,5.66c.78,2,1.66,4.12,2.66,6.49-.9-1.92-1.87-4.24-2.8-6.75s-1.74-5.23-2.67-7.84C101.92,372,103.79,377.29,102.55,374.08Zm-3.28-125.4c1.45-4.6,2.75-8.59,2.31-6.69.83-2.51,1.68-4.9,2.78-8,.17-.3.53-1.27,1-2.48l1.74-4c1.17-2.71,2.18-5,1.87-3.82-1.17,2.74-2.63,6-3.85,9.07s-2.24,6-3,8c-.39,1.1-2.34,8.5-2.89,9.47l2.06-6.78a5.76,5.76,0,0,1-.54,1.33c-.71,2.31-1,3.52-1.24,4.06-.23.18.65-2.08,1.15-4.08C100.69,244.22,99,249.92,99.27,248.68Zm26,170.92a36,36,0,0,1,2.51,3.44c.13.26.56.93.39.8A33,33,0,0,1,125.24,419.6ZM92.65,284.81c.06-1,.14-2.08.25-3.25l.52-3.69.61-4.08.32-2.16.45-2.2.21,0c-.56,2.37-.88,5.07-1.32,7.72-.21,1.33-.41,2.65-.61,3.93S92.79,283.65,92.65,284.81Zm22.27,116.26c.66,1.41-.35-.59-1.51-2.88s-2.25-5-2.2-4.73c-1.87-4.13.69,1.17,1.87,3.81C112.52,396.46,114.35,399.89,114.92,401.07Zm6.28,11.06c-1.2-1.91-2.19-3.66-3.08-5.28s-1.56-3.2-2.31-4.65c1.27,2.23,1.69,3.23,2.28,4.41S119.4,409.14,121.2,412.13ZM92.82,286.25c.16-1.59.12-.77,0,0,.06-.09.21-1.58.37-3.36.07-.89.19-1.84.33-2.73l.34-2.32c-.05-.54-.83,5.06-.9,5.58,0-.18,0-.88.11-1.54a12.26,12.26,0,0,0,.12-1.27c.33-1.7.53-2.94.8-4.71s.51-4.06,1.3-7.82l-.09,0c.36-1.74.36-1.37.09,0,0,0,.37-1.71.59-2.77-.77,4.19-1.25,6.51-1.39,8.22s-.26,2.74-.37,4.35l-.42,2.74a26.86,26.86,0,0,0-.35,2.84,17.45,17.45,0,0,0,.15-2.17c-.07.27-.16,1.33-.3,2.59a40.5,40.5,0,0,1-.65,5.18C92.76,287.43,92.82,286.55,92.82,286.25Zm11,88.88c-.23-.39-1.41-4.14-1.79-5.34.4.81,1.54,3.9,2.79,7.41.59,1.76,1.35,3.57,2,5.25l1.81,4.4c-.36-.78-1.38-3,.42,1.37-.31-.65-2.12-5.14-3.63-8.84C104.16,375.61,103.09,372.62,103.85,375.13ZM402.4,131.19,400,129.77l-2.5-1.34c5.71,3-4-2.42,1.35.44-1.53-1-2.55-1.41-6.14-3.44,2.07,1,4.6,2.38,7.65,4.08l4.86,3c1.76,1.1,3.7,2.21,5.66,3.6-1-.77-.48-.5-.39-.5s0-.07-.41-.37l-.91-.64-1.66-1c1.23.63,3.22,2,4.78,3-.8-.57-2.25-1.67-3.87-2.67l-4.38-2.74c.63.34,1.91,1.11,3.3,2l2.1,1.28,1.8,1.2c.48.39,1.45,1.09,3.46,2.46.12.49-.24.57-2.83-.86a30.16,30.16,0,0,1-2.71-1.86,5.89,5.89,0,0,1-.7-.55,1,1,0,0,1,.28.14c.2.1.47.3.88.57,0-.21-3.92-2.46-3.49-2.33-2.58-1.54-3-1.57-1.4-.45A23.61,23.61,0,0,1,402.4,131.19ZM100.23,363c.61,2.1,0,.11-.45-1.34a7.06,7.06,0,0,1-.3-1.65c0-.08.07,0,.2.48s.4,1.21.76,2.45C100.87,364.69,99.08,359,100.23,363Zm50.57,86.72c-2.51-2.36,2.13,2-.88-1.09a22.91,22.91,0,0,0,2.07,1.93,57.82,57.82,0,0,0,5,5,19.48,19.48,0,0,1-1.83-1.58c-.95-.83-1.72-1.71-1.24-1.31C151.18,449.79,152.85,451.76,150.8,449.68Zm-52-195.26c-.19,1.23-1.86,7.64-1.49,6.88-1.11,5.18-1.29,6.47-2,9.65.55-2.95,1.1-5.87,1.63-8.66S98.25,256.88,98.81,254.42Zm.13,0c.12-1,2.53-9.47,2.78-9.44-.67,2.05-1.12,3.56-1.54,5-.21.71-.43,1.39-.62,2.12ZM274.4,509.63c-2.7-.46-6.74-.9-11.13-1.49-.1.23,1.56.91-7-.81-.75-.24-4.12-.91-1.33-.44,1.48.3.91.27,2.75.63-.58-.33,2.22.07,5.32.55s6.57.73,7.26.74C273,509.22,278.22,509.84,274.4,509.63ZM95.65,342.36c.63,3.66.9,4.89,1.15,6s.43,2,1.18,5C97.68,353.36,95.15,341.05,95.65,342.36ZM360.44,111.6l1.53.49,1,.36,1,.34c.47.15.9.28,3.17,1.09-1.15-.32,1.06.67,2.61,1.08C374.82,116.94,357.88,110.77,360.44,111.6Zm-249,280.21c1.22,2.35,2.12,4.65,1.07,2.61-.29-.81-2.83-6-2.88-6.41-.56-1.43-.63-1.61-.44-1.14s.63,1.59,1.16,2.69C111.35,391.8,112.44,394.15,111.41,391.81Zm-10.52-27.57c-1.48-5.05.43,1-1-4.09.64,2.11.81,2.43.66,1.72-.08-.36-.25-1-.44-1.75l-.65-2.77c.3.9.58,2.43,1.11,4.12s1.07,3.61,1.64,5.33c-.44-1.64-.1-.56.12,0a13.27,13.27,0,0,0-.89-2.67l-1.12-4c.39,1,.83,2.46,1.34,4.26s1.06,4,1.94,6.47c-1.17-3.19-1.7-4.76-2.78-8C102,367.14,101.09,364.39,100.89,364.24Zm-7.79-70.9a18.59,18.59,0,0,1,.2-2.39c0-.18,0,.19,0,1,.34-3.7.74-8,1-9.77-.07,1.1,0,1.52,0,1.42-.27,2.69-.48,4.87-.67,6.8l-.14,1.39-.07,1.33-.13,2.52c-.08,1.66-.16,3.3-.26,5.17s0,4,0,6.59c-.06-1.1-.08-2.27-.1-3.52v-1.94c0-.66.06-1.35.1-2.05l.25-4.43.13-2.39c0-.81.08-1.64.17-2.49,0-.34-.19.72-.26,1.7S93.15,294.09,93.1,293.34Zm2.15,40.55c.49,3.34.54,3,1.09,6.92.06.62.16,1.23.45,2.76a67.57,67.57,0,0,1-1.46-8.27c.23,2.57-.3-.27-.18,1.43-.86-6.35-.25-3.47-.19-4.22,0-.45-.36-3.49-.58-5.57.66,5.28.05-1.17.21-1.43.08,1.13.32,3.82.42,4.18a4.87,4.87,0,0,1,.06,1.41,4,4,0,0,0,.28,1.36,5.11,5.11,0,0,1,.16,1.39l-.08,0c-.14-.93-.29-1.85-.41-2.77l-.28-2.79a27.92,27.92,0,0,0,.19,2.8C95.1,332.46,95.3,333.81,95.25,333.89Zm2.25,15.26a12.32,12.32,0,0,1-.46-2.77c-.32-1.65-.49-2.4-.68-3.22s-.41-1.7-.66-3.66c-.35-2.64-.09-.85.22,1.22s.88,4.38.65,2.89C96.83,345.25,97.67,349.35,97.5,349.15Zm13.08,39.94c-1.65-3.74-1.47-3.86-2.54-6.52.17.3,1.08,2.57,1.14,2.57C109.67,386.52,110.05,387.83,110.58,389.09Zm-7-18.34c-.82-2.42.33.78,1,2.62-.55-1.81-1.12-3.4-2-6.69.58,2,3,8.83,2.51,8C104.65,373.65,104.24,372.57,103.6,370.75Zm51.47-210.37c.33-.38.94-1,1.7-1.82s1.67-1.74,2.66-2.59c1.95-1.76,4-3.49,4.9-4.13-1.61,1.33-4.31,3.76-5.22,4.66,3.65-3.16,3.69-3,7.52-6.29.89-.88-2.25,1.45,1.9-2.08,2.3-1.67.72,0,3.62-2.21l1.62-1.32,1.43-1,2.36-1.71c1.46-1,2.75-2,4.72-3.39.9-.44-1.12.93-1,1-1.77,1.2-4,2.79-6.54,4.54s-5,3.92-7.62,5.91C162.09,154.08,157.41,158.22,155.07,160.38Zm270.18-13c1,.87-.05,0-1-.62s-1.79-1.21-.27,0C418.73,142.84,423.53,146.13,425.25,147.41ZM185.83,136.25a20.33,20.33,0,0,0,2.27-1.64c2.24-1.47,3-1.77,6-3.54,1.05-.68.52-.47.73-.67a8.92,8.92,0,0,1,1.15-.77c.77-.45,2-1.24,4.05-2.28-.84.58-1,.74-2.32,1.6.9-.5,3.74-2,6.23-3.19-.31.26-3.28,1.81-4.9,2.7-3.87,2.25-1.73.83-4.9,2.69-2.21,1.3-.66.56-2.31,1.55-.12.23,6.72-3.91,4.92-2.63-3,1.71-4.63,2.58-6.09,3.34S188,134.91,185.83,136.25Zm-77.26,246.1c.46.79,1.08,2.77,2.11,5.18a20.24,20.24,0,0,1-.93-2.63,51,51,0,0,0,2.14,5.15c-.26-.53-1-1.87-1.62-3.42S109,383.41,108.57,382.35ZM99.24,258.86c.39-1.54.23-.74,0,0,0,.2.51-1.64.51-1.3-.61,2.4-1.17,3.9-1.71,6.78a15.14,15.14,0,0,1,.52-2.76A17.24,17.24,0,0,0,99.24,258.86Zm307.5-124c1,.54,4.05,2.8,5.88,3.78.84.61-.38,0-2.09-1-.86-.49-1.81-1.13-2.74-1.69a22.62,22.62,0,0,1-2.37-1.57C409.53,137,407.44,135.33,406.74,134.82Zm-186-16.06a13.16,13.16,0,0,1-2.64.88c1.68-.74,4.74-2,6.46-2.62-1.55.47-2.59,1-1.39.28-3.5,1.48-4.63,1.91-5.46,2.19a27.39,27.39,0,0,0-3.62,1.42,25.88,25.88,0,0,1,2.86-1.33,12.15,12.15,0,0,0,2.23-1,39.49,39.49,0,0,0,5.19-2.06c3.89-1.35,3-.7,6.73-1.94-1.92.83-4.49,1.66-6.57,2.47A21.47,21.47,0,0,0,220.69,118.76ZM104.31,370.52c-1.4-3.74-.36-2-1.86-6.74C104,368.32,103.47,368,104.31,370.52Zm-4.67-19c1,5-1.47-3.49,0,0Zm.83-95.24c1.24-5.07,1.36-4.57,1.72-5.31.47-1.57.26-1.15.28-1.37.23-.43.18-.1-.06.76s-.68,2.23-1.08,3.92c-.84,3.37-2.15,7.85-2.7,11.57a13.71,13.71,0,0,0-.67,2.72c.19-1.36.62-3.66,1-5.49,0,0-.3,1.68-.5,2.75.31-1.37.55-2.51.74-3.5s.41-1.78.55-2.5C100.06,258.42,100.26,257.39,100.47,256.3ZM366.41,115.77c3.17,1.13-.78-.07,3.9,1.55-1.91-.56-5-1.57-5.37-1.52C362.22,114.7,366.59,116,366.41,115.77ZM161,156.49l3.62-3.22,2.07-1.8,2.3-1.81,5-3.91c1.76-1.32,3.63-2.62,5.5-4-1.5,1.32,4-2.62,1.31-.56-4.21,2.68-14.72,11-16.57,12.64a6.29,6.29,0,0,1,1.07-.89l1.41-1.21,1.73-1.39,3.32-2.69c-1.12.84-3.38,2.57-5.54,4.37S162,155.7,161,156.49Zm33.6-24.63,3.92-2.26c1.19-.67,2.34-1.23,3.5-1.85l3.77-1.94c1.36-.75,2.95-1.46,4.84-2.3-.17.13-1.67.83-3,1.46s-2.42,1.29-1.93,1.12c-1.82.91-4.78,2.46-3.78,1.78a25.53,25.53,0,0,1-2.65,1.49,16.63,16.63,0,0,0-2.14,1.32c1.71-.94.1,0-1.2.71C198,130,195.66,131.39,194.59,131.86ZM336.76,108.3c1.14.1-1.89-.49-1.31-.48,2.59.45,2.46.48,6.81,1.39-2.16-.35-3.41-.36-5.56-.65a18.53,18.53,0,0,0-2.58-.65l-2.14-.42c-.76-.15-1.59-.23-2.42-.36-3.31-.45-6.72-.93-7.87-1.26C327.76,107,331.47,107.08,336.76,108.3Zm90.44,43.33a5.41,5.41,0,0,0,1.16.8,5,5,0,0,1,1,.95c.05.1.95.86,1.91,1.67s1.9,1.76,2.2,2.06l-1.22-1c-.5-.46-1.34-1.14-3-2.58C429,153.29,430.44,154.29,427.2,151.63ZM97.89,274.22A28.7,28.7,0,0,1,99,268.79c.2-1.11.4-2.22.76-4.08.22,0-1.25,6.28-1.57,8.14C98.17,272.73,98.13,272.61,97.89,274.22ZM372.41,119.58c2.31,1-1.53-.5-6.55-2.28,0-.07,1.64.51,3.29,1.09S372.39,119.67,372.41,119.58ZM491.23,250.09c.43,1.45.19.93.72,2.68,0,0-.15-.41-.32-.94l-.52-1.7c0,.27.36,1.35.31,1.35.23.75.5,1.54.73,2.36s.42,1.66.64,2.49c.42,1.64.81,3.23,1.08,4.51-.17-.33-.93-3.41-1.73-6.71s-2-6.75-2.35-7.93a6,6,0,0,0,.25,1c.16.53.35,1.18.5,1.69-.23-.56-.59-1.65-1.28-3.94a4.36,4.36,0,0,0-.4-1.32C489.27,244.05,491.32,251.24,491.23,250.09Zm6.91,38c-.07-.21-.05.32.05,1.39-.19-.43-.49-6-.73-6.87-.17-1.41,0-1,.12.31S498,286.3,498.14,288.12Zm1.35-49.59c.1.6-1-2.49-.71-1.33-2.39-7.11-4.17-10.84-5.59-14.39-.72-1.78-1.57-3.42-2.46-5.39-.45-1-.94-2-1.48-3.19l-.85-1.85c-.33-.63-.67-1.3-1-2,1.26,1.87,3.18,6.13,5.58,11.2,1.07,2.6,2.22,5.41,3.39,8.27.62,1.42,1.08,2.91,1.61,4.36ZM441.24,161.1l3.91,4c-1.41-1.31-.28-.06,1.08,1.43l1,1.12.86,1c.48.61.74,1,.52.82-.6-.67-1.13-1.29-1.64-1.84l-1.48-1.49c-.91-.92-1.71-1.71-2.48-2.48-1.55-1.54-3-3-5.29-5.08l2.24,2,1.2,1.09c.66.6,1.23,1.11,2.8,2.62C444,164.13,440.32,160.39,441.24,161.1ZM494.49,265c.45,2.25.65,3.41.85,4.61s.49,2.44.82,4.89c-.19-1.37-1.12-5.74-1.61-8.1C494.48,265.57,493.92,262.45,494.49,265Z" transform="translate(-86.39 -94.85)"/></svg>